<?xml version="1.0" encoding="UTF-8" standalone="no"?>
<svg
   xmlns:dc="http://purl.org/dc/elements/1.1/"
   xmlns:cc="http://creativecommons.org/ns#"
   xmlns:rdf="http://www.w3.org/1999/02/22-rdf-syntax-ns#"
   xmlns:svg="http://www.w3.org/2000/svg"
   xmlns="http://www.w3.org/2000/svg"
   viewBox="0 0 1056 816"
   height="816"
   width="1056"
   xml:space="preserve"
   id="svg2"
   version="1.1"><metadata
     id="metadata8"><rdf:RDF><cc:Work
         rdf:about=""><dc:format>image/svg+xml</dc:format><dc:type
           rdf:resource="http://purl.org/dc/dcmitype/StillImage" /></cc:Work></rdf:RDF></metadata><defs
     id="defs6"><clipPath
       id="clipPath14"
       clipPathUnits="userSpaceOnUse"><path
         id="path12"
         d="M 0,0 H 612 V 792 H 0 Z" /></clipPath></defs><g
     clip-path="url(#clipPath14)"
     transform="matrix(0,1.3333333,1.3333333,0,0,0)"
     id="g10"><path
       id="path16"
       style="fill:#bdbcbc;fill-opacity:1;fill-rule:nonzero;stroke:none"
       d="m 202.081,60.572 h 26.344 V 771.38 h -26.344 z" /><text
       id="text26"
       style="font-variant:normal;font-weight:bold;font-size:8.49800014px;font-family:Helvetica;-inkscape-font-specification:Helvetica-Bold;writing-mode:lr-tb;fill:#231f20;fill-opacity:1;fill-rule:nonzero;stroke:none"
       transform="matrix(0,1,1,0,217.934,363.5161)"><tspan
         id="tspan18"
         y="0"
         x="0 2.829834 -223.62486 -220.79503 -216.07014 -214.09862 -296.79691 -291.83408 97.5103 102.47313 73.930901 76.760735 48.22105 53.183884 20.981562 25.944393 30.669283 -25.711548 -20.748716 -49.289249 -46.459415 -74.9991 -70.03627 -98.578499 -95.748665 -124.2875 -119.32467 -148.7065 -145.87666 -141.15178 -174.33647 -171.50664 -166.78175 -164.81021">-6-2’’+1+8-8+7+6o+6-5+5-4+4-3’-3’’</tspan><tspan
         id="tspan20"
         y="-4.6730504"
         x="-197.15359 -194.32376">-2</tspan><tspan
         id="tspan22"
         y="4.6739001"
         x="-198.22095 -193.25812">+3</tspan><tspan
         id="tspan24"
         y="-1.8869351e-15"
         x="-247.50935 -242.54652 -271.08789 -268.25806 123.2193 126.04913 146.53186 151.49469 169.349 172.17883 176.90372 190.57021 195.53304 200.25792 204.9828 206.95435 216.50949 221.47232 226.19722">+2-1-9+9-10+10’’+10</tspan></text>
<text
       id="text30"
       style="font-variant:normal;font-weight:bold;font-size:11.04740047px;font-family:Helvetica;-inkscape-font-specification:Helvetica-Bold;writing-mode:lr-tb;fill:#231f20;fill-opacity:1;fill-rule:nonzero;stroke:none"
       transform="matrix(0,1,1,0,218.738,42.0035)"><tspan
         id="tspan28"
         y="0"
         x="0">G</tspan></text>
<path
       id="path32"
       style="fill:none;stroke:#231f20;stroke-width:0.5;stroke-linecap:butt;stroke-linejoin:miter;stroke-miterlimit:4;stroke-dasharray:none;stroke-opacity:1"
       d="M 201.656,58.623 H 228.85 V 33.979 h -27.194 z m 27.194,0 z" /><path
       id="path34"
       style="fill:#bdbcbc;fill-opacity:1;fill-rule:nonzero;stroke:none"
       d="M 260.117,60.572 H 286.46 V 771.38 h -26.343 z" /><text
       id="text44"
       style="font-variant:normal;font-weight:bold;font-size:8.49800014px;font-family:Helvetica;-inkscape-font-specification:Helvetica-Bold;writing-mode:lr-tb;fill:#231f20;fill-opacity:1;fill-rule:nonzero;stroke:none"
       transform="matrix(0,1,1,0,275.97,534.5391)"><tspan
         id="tspan36"
         y="0"
         x="0 4.962832 -224.39394 -219.43111 -214.70622 71.570152 76.53299 81.257874 45.099735 50.062569 54.787457 59.512344 61.483028 23.11541 25.945244 30.670132 -23.577702 -20.747868 -50.13055 -45.167721 -40.442833 -72.86525 -70.035416 -98.575951 -93.613121 -125.81544 -120.85261 -116.12772 -147.63916 -144.81017 -140.08614 -172.50854 -167.54572 -196.08626 -193.25642 -245.37465 -242.54482 -271.08536 -266.12253 -295.55023 -292.7204 -287.99551 -322.12009 -319.29025 -314.56537 -312.59384 -310.62228">+9+4o+10+10’’-9o-9+8’-8+7+6o-6’+6-5-4+4-3’-3’’’</tspan><tspan
         id="tspan38"
         y="-4.6739001"
         x="-345.01794 -340.05511">+2</tspan><tspan
         id="tspan40"
         y="4.6739001"
         x="-345.01794 -340.05511">+3</tspan><tspan
         id="tspan42"
         y="0"
         x="-370.42188 -367.59204 -362.86716 -360.8956 -417.88321 -415.05338 -396.90079 -391.93796 -387.21307 -443.5939 -438.63107">-2’’-1+1o+1</tspan></text>
<path
       id="path46"
       style="fill:#deddde;fill-opacity:1;fill-rule:nonzero;stroke:none"
       d="m 289.01,60.572 h 26.344 V 771.38 H 289.01 Z" /><text
       id="text56"
       style="font-variant:normal;font-weight:bold;font-size:8.49800014px;font-family:Helvetica;-inkscape-font-specification:Helvetica-Bold;writing-mode:lr-tb;fill:#231f20;fill-opacity:1;fill-rule:nonzero;stroke:none"
       transform="matrix(0,1,1,0,304.8629,533.6971)"><tspan
         id="tspan48"
         y="0"
         x="0 4.962832 9.6877203 94.460365 99.423203 104.14809 108.87298 71.571007 76.533836 81.258728 85.983612 48.834606 51.66444 56.389328 25.487202 30.450033 -23.802048 -18.839216 -47.381451 -44.551617 -74.620087 -71.790253 -67.065369 -96.668999 -93.839165 -121.31235 -118.48251 -147.02304 -142.06021 -174.26338 -169.30055 -164.57567 -196.31145 -191.34862 -219.88914 -217.05931 -245.37379 -242.54396 -237.81908 -269.1767 -266.34686 -295.6947 -292.86487 -288.13998 -286.16846">+9’+10o+10’-10+9+8-8-7o-7-6+6+5o+5-4-4’-3-3’’</tspan><tspan
         id="tspan50"
         y="-4.6747499"
         x="-318.46594 -315.63611">-2</tspan><tspan
         id="tspan52"
         y="4.6730504"
         x="-319.53159 -314.56876">+3</tspan><tspan
         id="tspan54"
         y="0"
         x="-343.95059 -341.12076 -336.39587 -368.82001 -363.85718 -392.39771 -389.56787 -417.88406 -415.05423 -410.32932">-2’+2-1-1’</tspan></text>
<path
       id="path58"
       style="fill:#bdbcbc;fill-opacity:1;fill-rule:nonzero;stroke:none"
       d="m 317.902,60.572 h 26.344 V 771.38 h -26.344 z" /><text
       id="text62"
       style="font-variant:normal;font-weight:bold;font-size:8.49800014px;font-family:Helvetica;-inkscape-font-specification:Helvetica-Bold;writing-mode:lr-tb;fill:#231f20;fill-opacity:1;fill-rule:nonzero;stroke:none"
       transform="matrix(0,1,1,0,333.756,558.295)"><tspan
         id="tspan60"
         y="0"
         x="0 4.962832 9.6877203 -245.32791 -242.49808 -237.77319 -321.23291 -318.40308 -313.67816 -311.70663 -309.73511 72.459045 77.421875 82.146767 45.986927 50.94976 55.674648 60.399536 62.371071 24.00345 26.833284 31.558172 -22.64377 -19.813936 -49.241661 -44.278828 -39.55394 -74.573349 -71.743515 -67.018631 -97.688759 -92.725929 -124.9291 -119.96626 -115.24138 -146.75197 -143.92213 -139.19724 -174.21664 -169.25381 -164.52893 -195.19907 -192.36923 -223.50505 -218.54222 -213.81732 -272.79431 -267.83145 -263.10657 -294.61716 -291.78732 -287.06244 -343.90555 -341.07571 -336.35083 -369.53552 -366.70569 -361.9808 -360.00928 -396.01443 -391.05161 -386.32672 -417.83731 -415.00748 -410.28259 -442.65912 -437.69629 95.571907 98.401741 103.12663 107.85152">+9’-4’-3’’’+10+10’’-9o-9+8’-7o+7+6o-6’+5o-5+4o+3o-3’-2’-2’’+1o-1’+1-10o</tspan></text>
<path
       id="path64"
       style="fill:#deddde;fill-opacity:1;fill-rule:nonzero;stroke:none"
       d="M 346.797,60.572 H 373.14 V 771.38 h -26.343 z" /><text
       id="text72"
       style="font-variant:normal;font-weight:bold;font-size:8.49800014px;font-family:Helvetica;-inkscape-font-specification:Helvetica-Bold;writing-mode:lr-tb;fill:#231f20;fill-opacity:1;fill-rule:nonzero;stroke:none"
       transform="matrix(0,1,1,0,356.3229,534.5391)"><tspan
         id="tspan66"
         y="0"
         x="0 4.962832 -221.7961 -216.83327 -295.72955 -290.76672">+8+4+3</tspan><tspan
         id="tspan68"
         y="11.787576"
         x="-294.66391 -291.83408 0.00084980001 2.8306837 7.555572 -221.79781 -216.83496 -212.11008">-2-8o+3o</tspan><tspan
         id="tspan70"
         y="6.3242116"
         x="95.373055 100.33588 105.06078 109.78566 72.636658 75.466492 80.191376 49.288399 54.251232 25.711548 28.541384 -23.577702 -20.747868 -49.288399 -44.325569 -72.86525 -70.035416 -97.5103 -94.680466 -123.22015 -118.25732 -146.79785 -143.96802 -172.50771 -167.54486 -196.0854 -193.25557 -245.37379 -242.54396 -271.84592 -269.01608 -264.2912 -262.31967 -321.13431 -318.30447 -313.57959 -311.60806 -345.01794 -340.05511 -368.59479 -365.76495 -394.30466 -389.34183 120.85941 125.82224 130.54712">+10’-10+9-9-8+7-7-6+6-5+5-4-3-3’’-2’’+2-1+1+10</tspan></text>
<path
       id="path74"
       style="fill:#bdbcbc;fill-opacity:1;fill-rule:nonzero;stroke:none"
       d="m 375.69,60.572 h 26.343 V 771.38 H 375.69 Z" /><text
       id="text78"
       style="font-variant:normal;font-weight:bold;font-size:8.49800014px;font-family:Helvetica;-inkscape-font-specification:Helvetica-Bold;writing-mode:lr-tb;fill:#231f20;fill-opacity:1;fill-rule:nonzero;stroke:none"
       transform="matrix(0,1,1,0,391.5409,533.6971)"><tspan
         id="tspan76"
         y="0"
         x="0 4.962832 9.6877203 -219.88831 -217.05847 -294.6622 -291.83237 -287.10748 95.23114 100.19397 104.91885 109.64375 111.61528 73.245964 76.075798 80.800682 49.2901 54.252934 58.977821 25.488901 30.451733 -25.329988 -22.500154 -17.775267 -47.378899 -44.549065 -75.684036 -70.721207 -65.996315 -97.507751 -94.677917 -89.953026 -124.97159 -120.00876 -115.28387 -147.02049 -142.05766 -174.26083 -169.298 -164.57312 -196.08369 -193.25386 -188.52898 -245.3721 -242.54227 -237.81738 -272.8385 -267.87564 -263.15076 -319.53076 -314.5679 -346.77194 -341.80911 -337.08423 -368.59396 -365.76413 -361.03922 120.86025 125.82309 130.54797 135.27286">+8’-3-2’+10’’-9o+9’+8-7o-7+6o-6’+5o+5+4o-4’-3’+2o+2+1o-1’+10’</tspan></text>
<path
       id="path80"
       style="fill:#deddde;fill-opacity:1;fill-rule:nonzero;stroke:none"
       d="m 404.584,60.572 h 26.342 V 771.38 h -26.342 z" /><text
       id="text90"
       style="font-variant:normal;font-weight:bold;font-size:8.49800014px;font-family:Helvetica;-inkscape-font-specification:Helvetica-Bold;writing-mode:lr-tb;fill:#231f20;fill-opacity:1;fill-rule:nonzero;stroke:none"
       transform="matrix(0,1,1,0,420.4359,535.605)"><tspan
         id="tspan82"
         y="0"
         x="0 2.829834 -222.63741 -219.80757 -215.08269 -297.55661 -294.72678 -290.00189 -288.03036 96.215202 99.045036 103.76993 72.866951 77.829781 49.2901 52.119934 22.738098 27.700932 32.425819 -25.709 -20.746168 -52.950188 -47.987358 -43.262466 -73.930901 -71.101067 -99.641602 -94.678764 -123.21845 -120.38862 -151.52528 -146.56245 -141.83757 -172.50771 -169.67787 -198.21754 -193.25471 -248.26653 -245.43669 -240.71179 -238.74026">-8-3’-2’’-10+9-9+8’+7+6o-6+6-5+4o-4+4-3’’</tspan><tspan
         id="tspan84"
         y="-4.6747499"
         x="-271.08365 -268.25381">-2</tspan><tspan
         id="tspan86"
         y="4.6722002"
         x="-272.151 -267.18817">+3</tspan><tspan
         id="tspan88"
         y="-1.8869351e-15"
         x="-324.0347 -319.07187 -314.34695 -345.01709 -342.18726 -370.68106 -365.71823 117.96584 122.92867 127.65356 132.37845 134.34998 144.12608 149.08891 153.8138">+1o-1+1+10’’+10</tspan></text>
<path
       id="path92"
       style="fill:#bdbcbc;fill-opacity:1;fill-rule:nonzero;stroke:none"
       d="m 433.475,60.572 h 26.344 V 771.38 h -26.344 z" /><text
       id="text102"
       style="font-variant:normal;font-weight:bold;font-size:8.49800014px;font-family:Helvetica;-inkscape-font-specification:Helvetica-Bold;writing-mode:lr-tb;fill:#231f20;fill-opacity:1;fill-rule:nonzero;stroke:none"
       transform="matrix(0,1,1,0,449.3279,533.0101)"><tspan
         id="tspan94"
         y="0"
         x="0 2.829834 7.5547218 -221.02873 -218.1989 -213.47401 -211.50247 -294.20078 -289.23792 98.576797 101.40663 106.13152 74.620087 79.582924 84.307808 50.818039 55.780872 27.241188 30.071022 -22.048061 -19.218227 -46.693111 -43.863277 -72.177765 -69.347931 -64.623039 -99.642448 -94.679619 -89.954727 -121.69051 -116.72768 -145.2682 -142.43837 -170.75287 -167.92303 -163.19814 -194.55576 -191.72592">-7o-3’’+2-9o+9’+8-8-7-6-6’+5o+5-4-4’-3</tspan><tspan
         id="tspan96"
         y="-4.6739001"
         x="-247.50681 -242.54396 -237.81908">+2o</tspan><tspan
         id="tspan98"
         y="4.6739001"
         x="-246.657 -243.82716 -239.10228 -237.13074 -235.15921">-3’’’</tspan><tspan
         id="tspan100"
         y="0"
         x="-269.32965 -266.49982 -261.77493 -318.84241 -313.87958 -343.26141 -340.43158 -335.7067 123.4564 126.28623 131.01112">-2’+1-1’-10</tspan></text>
<path
       id="path104"
       style="fill:#deddde;fill-opacity:1;fill-rule:nonzero;stroke:none"
       d="m 462.368,60.572 h 26.345 V 771.38 h -26.345 z" /><text
       id="text120"
       style="font-variant:normal;font-weight:bold;font-size:8.49800014px;font-family:Helvetica;-inkscape-font-specification:Helvetica-Bold;writing-mode:lr-tb;fill:#231f20;fill-opacity:1;fill-rule:nonzero;stroke:none"
       transform="matrix(0,1,1,0,478.2219,534.5391)"><tspan
         id="tspan106"
         y="0"
         x="0 4.962832">+7</tspan><tspan
         id="tspan108"
         y="-4.6747499"
         x="-224.39394 -219.43111 -214.70622">+2o</tspan><tspan
         id="tspan110"
         y="4.6730504"
         x="-223.54414 -220.71431 -215.98941 -214.01788 -212.04634">-3’’’</tspan><tspan
         id="tspan112"
         y="0"
         x="-298.32654 -293.36371 -288.63882 98.576797 103.53963 74.9991 77.828934 48.447098 53.409931 58.134819 23.116261 25.946095 30.670982 -27.23864 -22.275808 -17.550919 -49.062355 -46.232521 -41.507629 -73.931747 -68.968918 -97.509453 -94.679619 -125.81459 -120.85176 -116.12687 -147.63831 -144.80933 -140.08528 -172.50771 -167.54486 -196.9267 -194.09686 -189.37198">+1o+9-9+8’-7o+6o-6’+6-5+4o-4’+4-3’</tspan><tspan
         id="tspan114"
         y="-4.6747499"
         x="-245.37379 -242.54396">-2</tspan><tspan
         id="tspan116"
         y="4.6730504"
         x="-246.43945 -241.47662">+3</tspan><tspan
         id="tspan118"
         y="0"
         x="-271.84592 -269.01608 -264.2912 -262.31967 -320.14771 -317.31787 -312.59299 -345.01794 -340.05511 121.69221 124.52204 129.24693 143.36551 148.32834 153.05322 157.77812 159.74965 169.30565 174.26848 178.99338">-2’’-1’+1-9o+10’’+10</tspan></text>
<path
       id="path122"
       style="fill:#bdbcbc;fill-opacity:1;fill-rule:nonzero;stroke:none"
       d="m 491.262,60.572 h 26.344 V 771.38 h -26.344 z" /><text
       id="text132"
       style="font-variant:normal;font-weight:bold;font-size:8.49800014px;font-family:Helvetica;-inkscape-font-specification:Helvetica-Bold;writing-mode:lr-tb;fill:#231f20;fill-opacity:1;fill-rule:nonzero;stroke:none"
       transform="matrix(0,1,1,0,507.114,535.605)"><tspan
         id="tspan124"
         y="0"
         x="0 2.829834">-7</tspan><tspan
         id="tspan126"
         y="-4.6747499"
         x="-221.7961 -218.96626">-2</tspan><tspan
         id="tspan128"
         y="4.6730504"
         x="-222.86176 -217.89891">+3</tspan><tspan
         id="tspan130"
         y="0"
         x="-295.7287 -292.89886 96.669846 101.63268 106.35757 72.867798 77.830635 49.290951 52.120785 23.5811 28.543932 -24.641651 -21.811817 -50.352348 -45.389519 -77.590988 -72.628159 -67.903267 -99.6399 -94.677071 -123.21675 -120.38692 -148.92744 -143.96461 -172.50516 -169.67532 -198.97643 -196.14659 -191.42169 -189.45016 -247.2782 -244.44836 -239.72348 -272.14844 -267.18561 -321.43686 -316.47403 122.1579 127.12074 145.24187 148.0717 152.79659 192.44995 197.4128 202.13768">-1+9’+8-8+7-6+6+5o+5-4+4-3-3’’-2’+2+1+9-10+10</tspan></text>
<path
       id="path134"
       style="fill:#deddde;fill-opacity:1;fill-rule:nonzero;stroke:none"
       d="M 520.155,60.572 H 546.5 V 771.38 h -26.345 z" /><text
       id="text144"
       style="font-variant:normal;font-weight:bold;font-size:8.49800014px;font-family:Helvetica;-inkscape-font-specification:Helvetica-Bold;writing-mode:lr-tb;fill:#231f20;fill-opacity:1;fill-rule:nonzero;stroke:none"
       transform="matrix(0,1,1,0,536.007,531.943)"><tspan
         id="tspan136"
         y="0"
         x="0 4.962832 9.6877203 -218.97562 -216.14578 -211.4209 -292.90906 -290.07922 -285.35434 99.64415 102.47398 107.19887 76.52874 81.49157 50.355747 53.185581 57.910469 28.307688 31.137522 -21.823713 -18.993879 -14.268991 -49.288399 -44.325569 -39.600681 -70.269112 -67.439278 -98.575951 -93.613121 -88.888229 -120.39881 -117.56898 -112.84409 -144.20171 -141.37187 -169.68637 -166.85654 -162.13164">+6o-2’-1’-8o+8-7o-7-6’+5o-5+4o-4’-3-3’</tspan><tspan
         id="tspan138"
         y="-4.6739001"
         x="-197.15105 -192.18822 -187.46333">+2o</tspan><tspan
         id="tspan140"
         y="4.6739001"
         x="-196.30209 -193.47226 -188.74738 -186.77585 -184.80431">-3’’’</tspan><tspan
         id="tspan142"
         y="0"
         x="-244.60388 -241.77405 -237.04916 -235.07762 -271.08365 -266.12082 -261.39594 124.97754 129.94037 134.66525">-2’’+1o+9’</tspan></text>
<path
       id="path146"
       style="fill:#deddde;fill-opacity:1;fill-rule:nonzero;stroke:none"
       d="m 231.224,60.572 h 26.343 V 771.38 h -26.343 z" /><text
       id="text166"
       style="font-variant:normal;font-weight:bold;font-size:8.49800014px;font-family:Helvetica;-inkscape-font-specification:Helvetica-Bold;writing-mode:lr-tb;fill:#231f20;fill-opacity:1;fill-rule:nonzero;stroke:none"
       transform="matrix(0,1,1,0,247.077,533.0101)"><tspan
         id="tspan148"
         y="0"
         x="0 2.829834 7.5547218 -220.2673 -215.30447 -293.13425 -290.30441 71.570152 74.399986 79.124878 83.84977 47.614292 52.577126 57.302013 62.026901 24.879595 27.709429 32.434315 -23.955862 -18.993031 -14.268142 -47.758759 -42.795929 -73.244263 -68.281433 -63.556541 -98.575951 -95.746117 -91.021225 -120.62401 -117.79417 -145.26906 -142.43922 -170.75371 -167.92387 -163.19899 -198.2184 -193.25557 -188.53069 -247.50764 -242.54482 -237.81993 -269.33051 -266.50067 -261.77579 -319.60468 -316.77484 -312.04996 -310.07843 -345.23465 -342.40482 -337.67993 -335.7084 -333.7377 -367.90646 -365.07663 -360.35175 -441.48386 -438.65402 -433.92914 -392.77502 -387.81216 -420.0162 -415.05338 -410.32849">-9o+5-3-10o+10’-10+9’+8+8’-7o-7-6-6’+5o+4o-4’-3’’-3’’’-2’-1’+2+1o</tspan><tspan
         id="tspan150"
         y="144.46515"
         x="144.17282 149.13565 153.86053 158.58543">+10o</tspan><tspan
         id="tspan152"
         y="288.93286"
         x="216.51289 221.47572 226.20061 230.92551">+10o</tspan><tspan
         id="tspan154"
         y="202.2524"
         x="145.83418 150.79701 155.5219 160.24678 169.3541 172.18393 176.90881 181.6337">+10’-10o</tspan><tspan
         id="tspan156"
         y="231.1456"
         x="193.51306 196.3429 201.06778 205.79266">-10o</tspan><tspan
         id="tspan158"
         y="260.03796"
         x="169.94725 174.91008 179.63498 184.35986">+10’</tspan><tspan
         id="tspan160"
         y="288.93286"
         x="194.1555 199.11833 203.84323 208.56812">+10’</tspan><tspan
         id="tspan162"
         y="288.93201"
         x="147.60262 150.43245 155.15733">-9o</tspan><tspan
         id="tspan164"
         y="288.93286"
         x="168.96234 173.92517 178.65005 183.37494 185.34648">+10’’</tspan></text>
<text
       id="text170"
       style="font-variant:normal;font-weight:bold;font-size:11.04740047px;font-family:Helvetica;-inkscape-font-specification:Helvetica-Bold;writing-mode:lr-tb;fill:#231f20;fill-opacity:1;fill-rule:nonzero;stroke:none"
       transform="matrix(0,1,1,0,276.773,42.3131)"><tspan
         id="tspan168"
         y="0"
         x="0">A</tspan></text>
<path
       id="path172"
       style="fill:none;stroke:#231f20;stroke-width:0.5;stroke-linecap:butt;stroke-linejoin:miter;stroke-miterlimit:4;stroke-dasharray:none;stroke-opacity:1"
       d="m 259.692,58.623 h 27.193 V 33.979 h -27.193 z m 27.193,0 z" /><text
       id="text176"
       style="font-variant:normal;font-weight:bold;font-size:11.04740047px;font-family:Helvetica;-inkscape-font-specification:Helvetica-Bold;writing-mode:lr-tb;fill:#231f20;fill-opacity:1;fill-rule:nonzero;stroke:none"
       transform="matrix(0,1,1,0,305.6659,38.9381)"><tspan
         id="tspan174"
         y="0"
         x="0 7.976223">Bb</tspan></text>
<path
       id="path178"
       style="fill:none;stroke:#231f20;stroke-width:0.5;stroke-linecap:butt;stroke-linejoin:miter;stroke-miterlimit:4;stroke-dasharray:none;stroke-opacity:1"
       d="m 288.585,58.623 h 27.193 V 33.979 h -27.193 z m 27.193,0 z" /><text
       id="text182"
       style="font-variant:normal;font-weight:bold;font-size:11.04740047px;font-family:Helvetica;-inkscape-font-specification:Helvetica-Bold;writing-mode:lr-tb;fill:#231f20;fill-opacity:1;fill-rule:nonzero;stroke:none"
       transform="matrix(0,1,1,0,334.559,42.3131)"><tspan
         id="tspan180"
         y="0"
         x="0">B</tspan></text>
<path
       id="path184"
       style="fill:none;stroke:#231f20;stroke-width:0.5;stroke-linecap:butt;stroke-linejoin:miter;stroke-miterlimit:4;stroke-dasharray:none;stroke-opacity:1"
       d="m 317.479,58.623 h 27.194 V 33.979 h -27.194 z m 27.194,0 z" /><text
       id="text188"
       style="font-variant:normal;font-weight:bold;font-size:11.04740047px;font-family:Helvetica;-inkscape-font-specification:Helvetica-Bold;writing-mode:lr-tb;fill:#231f20;fill-opacity:1;fill-rule:nonzero;stroke:none"
       transform="matrix(0,1,1,0,363.4509,42.3131)"><tspan
         id="tspan186"
         y="0"
         x="0">C</tspan></text>
<path
       id="path190"
       style="fill:none;stroke:#231f20;stroke-width:0.5;stroke-linecap:butt;stroke-linejoin:miter;stroke-miterlimit:4;stroke-dasharray:none;stroke-opacity:1"
       d="m 346.37,58.623 h 27.195 V 33.979 H 346.37 Z m 27.195,0 z" /><text
       id="text194"
       style="font-variant:normal;font-weight:bold;font-size:11.04740047px;font-family:Helvetica;-inkscape-font-specification:Helvetica-Bold;writing-mode:lr-tb;fill:#231f20;fill-opacity:1;fill-rule:nonzero;stroke:none"
       transform="matrix(0,1,1,0,392.3459,38.9381)"><tspan
         id="tspan192"
         y="0"
         x="0 7.976223">Db</tspan></text>
<path
       id="path196"
       style="fill:none;stroke:#231f20;stroke-width:0.5;stroke-linecap:butt;stroke-linejoin:miter;stroke-miterlimit:4;stroke-dasharray:none;stroke-opacity:1"
       d="m 375.266,58.623 h 27.191 V 33.979 h -27.191 z m 27.191,0 z" /><text
       id="text200"
       style="font-variant:normal;font-weight:bold;font-size:11.04740047px;font-family:Helvetica;-inkscape-font-specification:Helvetica-Bold;writing-mode:lr-tb;fill:#231f20;fill-opacity:1;fill-rule:nonzero;stroke:none"
       transform="matrix(0,1,1,0,421.2379,42.3131)"><tspan
         id="tspan198"
         y="0"
         x="0">D</tspan></text>
<path
       id="path202"
       style="fill:none;stroke:#231f20;stroke-width:0.5;stroke-linecap:butt;stroke-linejoin:miter;stroke-miterlimit:4;stroke-dasharray:none;stroke-opacity:1"
       d="m 404.157,58.623 h 27.194 V 33.979 h -27.194 z m 27.194,0 z" /><text
       id="text206"
       style="font-variant:normal;font-weight:bold;font-size:11.04740047px;font-family:Helvetica;-inkscape-font-specification:Helvetica-Bold;writing-mode:lr-tb;fill:#231f20;fill-opacity:1;fill-rule:nonzero;stroke:none"
       transform="matrix(0,1,1,0,450.131,39.2418)"><tspan
         id="tspan204"
         y="0"
         x="0 7.3686156">Eb</tspan></text>
<path
       id="path208"
       style="fill:none;stroke:#231f20;stroke-width:0.5;stroke-linecap:butt;stroke-linejoin:miter;stroke-miterlimit:4;stroke-dasharray:none;stroke-opacity:1"
       d="m 433.051,58.623 h 27.193 V 33.979 h -27.193 z m 27.193,0 z" /><text
       id="text212"
       style="font-variant:normal;font-weight:bold;font-size:11.04740047px;font-family:Helvetica;-inkscape-font-specification:Helvetica-Bold;writing-mode:lr-tb;fill:#231f20;fill-opacity:1;fill-rule:nonzero;stroke:none"
       transform="matrix(0,1,1,0,479.0229,42.6168)"><tspan
         id="tspan210"
         y="0"
         x="0">E</tspan></text>
<path
       id="path214"
       style="fill:none;stroke:#231f20;stroke-width:0.5;stroke-linecap:butt;stroke-linejoin:miter;stroke-miterlimit:4;stroke-dasharray:none;stroke-opacity:1"
       d="m 461.943,58.623 h 27.195 V 33.979 h -27.195 z m 27.195,0 z" /><text
       id="text218"
       style="font-variant:normal;font-weight:bold;font-size:11.04740047px;font-family:Helvetica;-inkscape-font-specification:Helvetica-Bold;writing-mode:lr-tb;fill:#231f20;fill-opacity:1;fill-rule:nonzero;stroke:none"
       transform="matrix(0,1,1,0,507.9179,42.9259)"><tspan
         id="tspan216"
         y="0"
         x="0">F</tspan></text>
<path
       id="path220"
       style="fill:none;stroke:#231f20;stroke-width:0.5;stroke-linecap:butt;stroke-linejoin:miter;stroke-miterlimit:4;stroke-dasharray:none;stroke-opacity:1"
       d="M 490.837,58.623 H 518.03 V 33.979 h -27.193 z m 27.193,0 z" /><text
       id="text224"
       style="font-variant:normal;font-weight:bold;font-size:11.04740047px;font-family:Helvetica;-inkscape-font-specification:Helvetica-Bold;writing-mode:lr-tb;fill:#231f20;fill-opacity:1;fill-rule:nonzero;stroke:none"
       transform="matrix(0,1,1,0,536.8119,39.8546)"><tspan
         id="tspan222"
         y="0"
         x="0 6.7499614">F#</tspan></text>
<path
       id="path226"
       style="fill:none;stroke:#231f20;stroke-width:0.5;stroke-linecap:butt;stroke-linejoin:miter;stroke-miterlimit:4;stroke-dasharray:none;stroke-opacity:1"
       d="m 519.73,58.623 h 27.194 V 33.979 H 519.73 Z m 27.194,0 z" /><text
       id="text230"
       style="font-variant:normal;font-weight:bold;font-size:11.04740047px;font-family:Helvetica;-inkscape-font-specification:Helvetica-Bold;writing-mode:lr-tb;fill:#231f20;fill-opacity:1;fill-rule:nonzero;stroke:none"
       transform="matrix(0,1,1,0,247.88,38.9381)"><tspan
         id="tspan228"
         y="0"
         x="0 7.976223">Ab</tspan></text>
<path
       id="path232"
       style="fill:none;stroke:#231f20;stroke-width:0.5;stroke-linecap:butt;stroke-linejoin:miter;stroke-miterlimit:4;stroke-dasharray:none;stroke-opacity:1"
       d="m 230.799,58.623 h 27.194 V 33.979 h -27.194 z m 27.194,0 z" /><path
       id="path234"
       style="fill:none;stroke:#ffffff;stroke-width:2;stroke-linecap:butt;stroke-linejoin:miter;stroke-miterlimit:4;stroke-dasharray:none;stroke-opacity:1"
       d="m 200.291,132.898 c 346.289,0 346.289,0 346.289,0 M 200.291,108.396 c 346.289,0 346.289,0 346.289,0 M 200.291,157.4 c 346.289,0 346.289,0 346.289,0 M 200.291,83.894 c 346.289,0 346.289,0 346.289,0 M 200.291,59.392 c 346.289,0 346.289,0 346.289,0 m -346.289,590.89 c 346.289,0 346.289,0 346.289,0 M 200.291,625.639 c 346.289,0 346.289,0 346.289,0 M 200.291,600.994 c 346.289,0 346.289,0 346.289,0 M 200.291,576.35 c 346.289,0 346.289,0 346.289,0 M 200.291,551.706 c 346.289,0 346.289,0 346.289,0 M 200.291,527.062 c 346.289,0 346.289,0 346.289,0 M 200.291,502.418 c 346.289,0 346.289,0 346.289,0 M 200.291,477.773 c 346.289,0 346.289,0 346.289,0 M 200.291,453.13 c 346.289,0 346.289,0 346.289,0 M 200.291,428.485 c 346.289,0 346.289,0 346.289,0 M 200.291,403.842 c 346.289,0 346.289,0 346.289,0 M 200.291,379.197 c 346.289,0 346.289,0 346.289,0 M 200.291,354.553 c 346.289,0 346.289,0 346.289,0 M 200.291,329.909 c 346.289,0 346.289,0 346.289,0 M 200.291,305.265 c 346.289,0 346.289,0 346.289,0 M 200.291,280.62 c 346.289,0 346.289,0 346.289,0 M 200.291,255.977 c 346.289,0 346.289,0 346.289,0 M 200.291,231.332 c 346.289,0 346.289,0 346.289,0 M 200.291,206.688 c 346.289,0 346.289,0 346.289,0 M 200.291,182.044 c 346.289,0 346.289,0 346.289,0 M 200.291,747.267 c 346.289,0 346.289,0 346.289,0 M 200.291,723.153 c 346.289,0 346.289,0 346.289,0 M 200.291,699.04 c 346.289,0 346.289,0 346.289,0 M 200.291,674.927 c 346.289,0 346.289,0 346.289,0 M 200.291,771.38 c 346.289,0 346.289,0 346.289,0" /><path
       id="path236"
       style="fill:none;stroke:#231f20;stroke-width:1;stroke-linecap:round;stroke-linejoin:round;stroke-miterlimit:4;stroke-dasharray:none;stroke-opacity:1"
       d="m 97.394,57.565 c 0,715.508 0,715.508 0,715.508" /><path
       id="path238"
       style="fill:none;stroke:#231f20;stroke-width:1;stroke-linecap:butt;stroke-linejoin:miter;stroke-miterlimit:4;stroke-dasharray:none;stroke-opacity:1"
       d="m 107.592,57.565 c 0,715.508 0,715.508 0,715.508 M 117.789,57.565 c 0,715.508 0,715.508 0,715.508 M 127.987,57.565 c 0,715.508 0,715.508 0,715.508 M 87.196,57.565 c 0,715.508 0,715.508 0,715.508" /><path
       id="path240"
       style="fill:#a7a5a6;fill-opacity:1;fill-rule:nonzero;stroke:none"
       d="m 92.282,533.669 c -2.654,-0.16 -4.961,2.27 -5.151,5.424 -0.191,3.157 1.807,5.845 4.462,6.006 2.654,0.16 4.961,-2.269 5.151,-5.425 0.191,-3.156 -1.807,-5.844 -4.462,-6.005" /><path
       id="path242"
       style="fill:none;stroke:#a7a5a6;stroke-width:1;stroke-linecap:butt;stroke-linejoin:miter;stroke-miterlimit:4;stroke-dasharray:none;stroke-opacity:1"
       d="m 92.282,533.669 c -2.654,-0.16 -4.961,2.27 -5.151,5.424 -0.191,3.157 1.807,5.845 4.462,6.006 2.654,0.16 4.961,-2.269 5.151,-5.425 0.191,-3.156 -1.807,-5.844 -4.462,-6.005 z" /><text
       id="text246"
       style="font-variant:normal;font-weight:normal;font-size:5.94859982px;font-family:Helvetica;-inkscape-font-specification:Helvetica;writing-mode:lr-tb;fill:#231f20;fill-opacity:1;fill-rule:nonzero;stroke:none"
       transform="matrix(0,1,1,0,93.9575,537.0591)"><tspan
         id="tspan244"
         y="0"
         x="0">E</tspan></text>
<path
       id="path248"
       style="fill:#a7a5a6;fill-opacity:1;fill-rule:nonzero;stroke:none"
       d="m 91.855,534.226 c 32.292,0 32.292,0 32.292,0" /><path
       id="path250"
       style="fill:none;stroke:#a7a5a6;stroke-width:1.25;stroke-linecap:butt;stroke-linejoin:miter;stroke-miterlimit:4;stroke-dasharray:none;stroke-opacity:1"
       d="m 91.855,534.226 c 32.292,0 32.292,0 32.292,0" /><path
       id="path252"
       style="fill:#a7a5a6;fill-opacity:1;fill-rule:nonzero;stroke:none"
       d="m 97.644,509.025 c -2.655,-0.16 -4.961,2.269 -5.152,5.424 -0.19,3.157 1.807,5.845 4.462,6.005 2.654,0.16 4.961,-2.269 5.151,-5.424 0.191,-3.156 -1.807,-5.844 -4.461,-6.005" /><path
       id="path254"
       style="fill:none;stroke:#a7a5a6;stroke-width:1;stroke-linecap:butt;stroke-linejoin:miter;stroke-miterlimit:4;stroke-dasharray:none;stroke-opacity:1"
       d="m 97.644,509.025 c -2.655,-0.16 -4.961,2.269 -5.152,5.424 -0.19,3.157 1.807,5.845 4.462,6.005 2.654,0.16 4.961,-2.269 5.151,-5.424 0.191,-3.156 -1.807,-5.844 -4.461,-6.005 z" /><path
       id="path256"
       style="fill:#a7a5a6;fill-opacity:1;fill-rule:nonzero;stroke:none"
       d="m 97.216,509.581 c 32.292,0 32.292,0 32.292,0" /><path
       id="path258"
       style="fill:none;stroke:#a7a5a6;stroke-width:1.25;stroke-linecap:butt;stroke-linejoin:miter;stroke-miterlimit:4;stroke-dasharray:none;stroke-opacity:1"
       d="m 97.216,509.581 c 32.292,0 32.292,0 32.292,0" /><text
       id="text262"
       style="font-variant:normal;font-weight:normal;font-size:5.94859982px;font-family:Helvetica;-inkscape-font-specification:Helvetica;writing-mode:lr-tb;fill:#231f20;fill-opacity:1;fill-rule:nonzero;stroke:none"
       transform="matrix(0,1,1,0,99.0557,512.2491)"><tspan
         id="tspan260"
         y="0"
         x="0">D</tspan></text>
<path
       id="path264"
       style="fill:#a7a5a6;fill-opacity:1;fill-rule:nonzero;stroke:none"
       d="m 61.908,681.534 c -2.654,-0.16 -4.961,2.269 -5.151,5.424 -0.191,3.156 1.807,5.846 4.462,6.005 2.654,0.16 4.961,-2.269 5.151,-5.424 0.19,-3.156 -1.807,-5.845 -4.462,-6.005" /><path
       id="path266"
       style="fill:none;stroke:#a7a5a6;stroke-width:1;stroke-linecap:butt;stroke-linejoin:miter;stroke-miterlimit:4;stroke-dasharray:none;stroke-opacity:1"
       d="m 61.908,681.534 c -2.654,-0.16 -4.961,2.269 -5.151,5.424 -0.191,3.156 1.807,5.846 4.462,6.005 2.654,0.16 4.961,-2.269 5.151,-5.424 0.19,-3.156 -1.807,-5.845 -4.462,-6.005 z" /><path
       id="path268"
       style="fill:#a7a5a6;fill-opacity:1;fill-rule:nonzero;stroke:none"
       d="m 61.48,682.09 c 32.293,0 32.293,0 32.293,0" /><path
       id="path270"
       style="fill:none;stroke:#a7a5a6;stroke-width:1.25;stroke-linecap:butt;stroke-linejoin:miter;stroke-miterlimit:4;stroke-dasharray:none;stroke-opacity:1"
       d="m 61.48,682.09 c 32.293,0 32.293,0 32.293,0" /><text
       id="text274"
       style="font-variant:normal;font-weight:normal;font-size:5.94859982px;font-family:Helvetica;-inkscape-font-specification:Helvetica;writing-mode:lr-tb;fill:#231f20;fill-opacity:1;fill-rule:nonzero;stroke:none"
       transform="matrix(0,1,1,0,63.3213,684.759)"><tspan
         id="tspan272"
         y="0"
         x="0">D</tspan></text>
<path
       id="path276"
       style="fill:#a7a5a6;fill-opacity:1;fill-rule:nonzero;stroke:none"
       d="m 102.431,495.811 c 2.654,0.16 4.961,-2.27 5.152,-5.425 0.19,-3.157 -1.808,-5.845 -4.462,-6.005 -2.655,-0.16 -4.961,2.268 -5.152,5.425 -0.19,3.156 1.808,5.843 4.462,6.005" /><path
       id="path278"
       style="fill:none;stroke:#a7a5a6;stroke-width:1;stroke-linecap:butt;stroke-linejoin:miter;stroke-miterlimit:4;stroke-dasharray:none;stroke-opacity:1"
       d="m 102.431,495.811 c 2.654,0.16 4.961,-2.27 5.152,-5.425 0.19,-3.157 -1.808,-5.845 -4.462,-6.005 -2.655,-0.16 -4.961,2.268 -5.152,5.425 -0.19,3.156 1.808,5.843 4.462,6.005 z" /><text
       id="text282"
       style="font-variant:normal;font-weight:normal;font-size:5.94859982px;font-family:Helvetica;-inkscape-font-specification:Helvetica;writing-mode:lr-tb;fill:#231f20;fill-opacity:1;fill-rule:nonzero;stroke:none"
       transform="matrix(0,1,1,0,104.662,487.604)"><tspan
         id="tspan280"
         y="0"
         x="0">C</tspan></text>
<path
       id="path284"
       style="fill:#a7a5a6;fill-opacity:1;fill-rule:nonzero;stroke:none"
       d="m 102.859,495.254 c -32.293,0 -32.293,0 -32.293,0" /><path
       id="path286"
       style="fill:none;stroke:#a7a5a6;stroke-width:1.25;stroke-linecap:butt;stroke-linejoin:miter;stroke-miterlimit:4;stroke-dasharray:none;stroke-opacity:1"
       d="m 102.859,495.254 c -32.293,0 -32.293,0 -32.293,0" /><path
       id="path288"
       style="fill:#a7a5a6;fill-opacity:1;fill-rule:nonzero;stroke:none"
       d="m 106.68,471.166 c 2.654,0.16 4.962,-2.269 5.152,-5.424 0.19,-3.157 -1.808,-5.846 -4.462,-6.005 -2.655,-0.16 -4.961,2.269 -5.152,5.424 -0.19,3.157 1.807,5.845 4.462,6.005" /><path
       id="path290"
       style="fill:none;stroke:#a7a5a6;stroke-width:1;stroke-linecap:butt;stroke-linejoin:miter;stroke-miterlimit:4;stroke-dasharray:none;stroke-opacity:1"
       d="m 106.68,471.166 c 2.654,0.16 4.962,-2.269 5.152,-5.424 0.19,-3.157 -1.808,-5.846 -4.462,-6.005 -2.655,-0.16 -4.961,2.269 -5.152,5.424 -0.19,3.157 1.807,5.845 4.462,6.005 z" /><text
       id="text294"
       style="font-variant:normal;font-weight:normal;font-size:5.94859982px;font-family:Helvetica;-inkscape-font-specification:Helvetica;writing-mode:lr-tb;fill:#231f20;fill-opacity:1;fill-rule:nonzero;stroke:none"
       transform="matrix(0,1,1,0,108.911,463.1251)"><tspan
         id="tspan292"
         y="0"
         x="0">B</tspan></text>
<path
       id="path296"
       style="fill:#a7a5a6;fill-opacity:1;fill-rule:nonzero;stroke:none"
       d="m 107.108,470.609 c -32.293,0 -32.293,0 -32.293,0" /><path
       id="path298"
       style="fill:none;stroke:#a7a5a6;stroke-width:1.25;stroke-linecap:butt;stroke-linejoin:miter;stroke-miterlimit:4;stroke-dasharray:none;stroke-opacity:1"
       d="m 107.108,470.609 c -32.293,0 -32.293,0 -32.293,0" /><path
       id="path300"
       style="fill:#a7a5a6;fill-opacity:1;fill-rule:nonzero;stroke:none"
       d="m 112.121,446.521 c 2.654,0.161 4.961,-2.268 5.152,-5.423 0.19,-3.158 -1.808,-5.844 -4.462,-6.005 -2.654,-0.16 -4.961,2.268 -5.152,5.425 -0.19,3.156 1.808,5.844 4.462,6.003" /><path
       id="path302"
       style="fill:none;stroke:#a7a5a6;stroke-width:1;stroke-linecap:butt;stroke-linejoin:miter;stroke-miterlimit:4;stroke-dasharray:none;stroke-opacity:1"
       d="m 112.121,446.521 c 2.654,0.161 4.961,-2.268 5.152,-5.423 0.19,-3.158 -1.808,-5.844 -4.462,-6.005 -2.654,-0.16 -4.961,2.268 -5.152,5.425 -0.19,3.156 1.808,5.844 4.462,6.003 z" /><text
       id="text306"
       style="font-variant:normal;font-weight:normal;font-size:5.94859982px;font-family:Helvetica;-inkscape-font-specification:Helvetica;writing-mode:lr-tb;fill:#231f20;fill-opacity:1;fill-rule:nonzero;stroke:none"
       transform="matrix(0,1,1,0,114.352,438.481)"><tspan
         id="tspan304"
         y="0"
         x="0">A</tspan></text>
<path
       id="path308"
       style="fill:#a7a5a6;fill-opacity:1;fill-rule:nonzero;stroke:none"
       d="m 112.549,445.966 c -32.293,0 -32.293,0 -32.293,0" /><path
       id="path310"
       style="fill:none;stroke:#a7a5a6;stroke-width:1.25;stroke-linecap:butt;stroke-linejoin:miter;stroke-miterlimit:4;stroke-dasharray:none;stroke-opacity:1"
       d="m 112.549,445.966 c -32.293,0 -32.293,0 -32.293,0" /><path
       id="path312"
       style="fill:#a7a5a6;fill-opacity:1;fill-rule:nonzero;stroke:none"
       d="m 117.087,421.877 c 2.655,0.161 4.961,-2.268 5.152,-5.423 0.191,-3.158 -1.808,-5.846 -4.462,-6.006 -2.654,-0.16 -4.961,2.27 -5.152,5.425 -0.19,3.156 1.808,5.845 4.462,6.004" /><path
       id="path314"
       style="fill:none;stroke:#a7a5a6;stroke-width:1;stroke-linecap:butt;stroke-linejoin:miter;stroke-miterlimit:4;stroke-dasharray:none;stroke-opacity:1"
       d="m 117.087,421.877 c 2.655,0.161 4.961,-2.268 5.152,-5.423 0.191,-3.158 -1.808,-5.846 -4.462,-6.006 -2.654,-0.16 -4.961,2.27 -5.152,5.425 -0.19,3.156 1.808,5.845 4.462,6.004 z" /><text
       id="text318"
       style="font-variant:normal;font-weight:normal;font-size:5.94859982px;font-family:Helvetica;-inkscape-font-specification:Helvetica;writing-mode:lr-tb;fill:#231f20;fill-opacity:1;fill-rule:nonzero;stroke:none"
       transform="matrix(0,1,1,0,119.317,413.507)"><tspan
         id="tspan316"
         y="0"
         x="0">G</tspan></text>
<path
       id="path320"
       style="fill:#a7a5a6;fill-opacity:1;fill-rule:nonzero;stroke:none"
       d="m 117.515,421.322 c -32.293,0 -32.293,0 -32.293,0" /><path
       id="path322"
       style="fill:none;stroke:#a7a5a6;stroke-width:1.25;stroke-linecap:butt;stroke-linejoin:miter;stroke-miterlimit:4;stroke-dasharray:none;stroke-opacity:1"
       d="m 117.515,421.322 c -32.293,0 -32.293,0 -32.293,0" /><path
       id="path324"
       style="fill:#a7a5a6;fill-opacity:1;fill-rule:nonzero;stroke:none"
       d="m 122.744,397.233 c 2.654,0.161 4.961,-2.268 5.151,-5.423 0.19,-3.158 -1.808,-5.845 -4.462,-6.005 -2.654,-0.16 -4.961,2.268 -5.151,5.424 -0.191,3.156 1.808,5.844 4.462,6.004" /><path
       id="path326"
       style="fill:none;stroke:#a7a5a6;stroke-width:1;stroke-linecap:butt;stroke-linejoin:miter;stroke-miterlimit:4;stroke-dasharray:none;stroke-opacity:1"
       d="m 122.744,397.233 c 2.654,0.161 4.961,-2.268 5.151,-5.423 0.19,-3.158 -1.808,-5.845 -4.462,-6.005 -2.654,-0.16 -4.961,2.268 -5.151,5.424 -0.191,3.156 1.808,5.844 4.462,6.004 z" /><text
       id="text330"
       style="font-variant:normal;font-weight:normal;font-size:5.94859982px;font-family:Helvetica;-inkscape-font-specification:Helvetica;writing-mode:lr-tb;fill:#231f20;fill-opacity:1;fill-rule:nonzero;stroke:none"
       transform="matrix(0,1,1,0,124.974,389.3591)"><tspan
         id="tspan328"
         y="0"
         x="0">F</tspan></text>
<path
       id="path332"
       style="fill:#a7a5a6;fill-opacity:1;fill-rule:nonzero;stroke:none"
       d="m 123.171,396.678 c -32.292,0 -32.292,0 -32.292,0" /><path
       id="path334"
       style="fill:none;stroke:#a7a5a6;stroke-width:1.25;stroke-linecap:butt;stroke-linejoin:miter;stroke-miterlimit:4;stroke-dasharray:none;stroke-opacity:1"
       d="m 123.171,396.678 c -32.292,0 -32.292,0 -32.292,0" /><path
       id="path336"
       style="fill:none;stroke:#a7a5a6;stroke-width:0.5;stroke-linecap:butt;stroke-linejoin:miter;stroke-miterlimit:4;stroke-dasharray:none;stroke-opacity:1"
       d="m 138.185,207.963 c 0,22.094 0,22.094 0,22.094 m 0,76.482 c 0,22.095 0,22.095 0,22.095 m 0,-46.739 c 0,22.095 0,22.095 0,22.095 m 0,-46.739 c 0,22.095 0,22.095 0,22.095 m 0,-46.739 c 0,22.095 0,22.095 0,22.095 m 10.197,-46.739 c 0,22.094 0,22.094 0,22.094 m 0,27.194 c 0,22.095 0,22.095 0,22.095 m 0,-46.739 c 0,22.095 0,22.095 0,22.095 m 10.198,273.634 c 0,22.095 0,22.095 0,22.095 m 0,-46.74 c 0,22.097 0,22.097 0,22.097 m 0,-46.739 c 0,22.094 0,22.094 0,22.094 m 0,-46.739 c 0,22.095 0,22.095 0,22.095 m 0,-46.738 c 0,22.093 0,22.093 0,22.093 m 0,-46.738 c 0,22.095 0,22.095 0,22.095 m 0,-46.739 c 0,22.094 0,22.094 0,22.094 m 0,-46.738 c 0,22.094 0,22.094 0,22.094 m 0,-46.739 c 0,22.095 0,22.095 0,22.095 m 0,-46.739 c 0,22.095 0,22.095 0,22.095 m 0,-46.739 c 0,22.095 0,22.095 0,22.095 m 0,-46.739 c 0,22.095 0,22.095 0,22.095 m 0,-46.739 c 0,22.095 0,22.095 0,22.095 m 0,-46.739 c 0,22.094 0,22.094 0,22.094 m 10.197,-46.738 c 0,22.095 0,22.095 0,22.095 m 0,-46.74 c 0,22.096 0,22.096 0,22.096 m -10.197,2.549 c 0,22.095 0,22.095 0,22.095 m 0,-46.74 c 0,22.096 0,22.096 0,22.096 m -20.395,446.143 c 0,22.095 0,22.095 0,22.095 m 10.197,-22.095 c 0,22.095 0,22.095 0,22.095 m 20.395,-22.095 c 0,22.095 0,22.095 0,22.095 m 10.198,-22.095 c 0,22.095 0,22.095 0,22.095 M 158.58,626.913 c 0,22.095 0,22.095 0,22.095 M 138.185,602.27 c 0,22.093 0,22.093 0,22.093 m 10.197,-22.093 c 0,22.093 0,22.093 0,22.093 m 20.395,-22.093 c 0,22.093 0,22.093 0,22.093 m 10.198,-22.093 c 0,22.093 0,22.093 0,22.093 M 158.58,602.27 c 0,22.093 0,22.093 0,22.093 m -20.395,-46.738 c 0,22.095 0,22.095 0,22.095 m 10.197,-22.095 c 0,22.095 0,22.095 0,22.095 m 20.395,-22.095 c 0,22.095 0,22.095 0,22.095 m 10.198,-22.095 c 0,22.095 0,22.095 0,22.095 M 158.58,577.625 c 0,22.095 0,22.095 0,22.095 m -20.395,-46.74 c 0,22.095 0,22.095 0,22.095 m 10.197,-22.095 c 0,22.095 0,22.095 0,22.095 m 20.395,-22.095 c 0,22.095 0,22.095 0,22.095 m 10.198,-22.095 c 0,22.095 0,22.095 0,22.095 M 158.58,552.98 c 0,22.095 0,22.095 0,22.095 m -20.395,-46.739 c 0,22.095 0,22.095 0,22.095 m 10.197,-22.095 c 0,22.095 0,22.095 0,22.095 m 20.395,-22.095 c 0,22.095 0,22.095 0,22.095 m 10.198,-22.095 c 0,22.095 0,22.095 0,22.095 M 158.58,528.336 c 0,22.095 0,22.095 0,22.095 m -20.395,-46.74 c 0,22.097 0,22.097 0,22.097 m 10.197,-22.097 c 0,22.097 0,22.097 0,22.097 m 20.395,-22.097 c 0,22.097 0,22.097 0,22.097 m 10.198,-22.097 c 0,22.097 0,22.097 0,22.097 M 158.58,503.691 c 0,22.097 0,22.097 0,22.097 m -20.395,-46.739 c 0,22.094 0,22.094 0,22.094 m 10.197,-22.094 c 0,22.094 0,22.094 0,22.094 m 20.395,-22.094 c 0,22.094 0,22.094 0,22.094 m 10.198,-22.094 c 0,22.094 0,22.094 0,22.094 M 158.58,479.049 c 0,22.094 0,22.094 0,22.094 m -20.395,-46.739 c 0,22.095 0,22.095 0,22.095 m 10.197,-22.095 c 0,22.095 0,22.095 0,22.095 m 20.395,-22.095 c 0,22.095 0,22.095 0,22.095 m 10.198,-22.095 c 0,22.095 0,22.095 0,22.095 M 158.58,454.404 c 0,22.095 0,22.095 0,22.095 m -20.395,-46.738 c 0,22.093 0,22.093 0,22.093 m 10.197,-22.093 c 0,22.093 0,22.093 0,22.093 m 20.395,-22.093 c 0,22.093 0,22.093 0,22.093 m 10.198,-22.093 c 0,22.093 0,22.093 0,22.093 M 158.58,429.761 c 0,22.093 0,22.093 0,22.093 m -20.395,-46.738 c 0,22.095 0,22.095 0,22.095 m 10.197,-22.095 c 0,22.095 0,22.095 0,22.095 m 20.395,-22.095 c 0,22.095 0,22.095 0,22.095 m 10.198,-22.095 c 0,22.095 0,22.095 0,22.095 M 158.58,405.116 c 0,22.095 0,22.095 0,22.095 m -20.395,-46.739 c 0,22.094 0,22.094 0,22.094 m 10.197,-22.094 c 0,22.094 0,22.094 0,22.094 m 20.395,-22.094 c 0,22.094 0,22.094 0,22.094 m 10.198,-22.094 c 0,22.094 0,22.094 0,22.094 M 158.58,380.472 c 0,22.094 0,22.094 0,22.094 m -20.395,-46.738 c 0,22.094 0,22.094 0,22.094 m 10.197,-22.094 c 0,22.094 0,22.094 0,22.094 m 20.395,-22.094 c 0,22.094 0,22.094 0,22.094 m 10.198,-22.094 c 0,22.094 0,22.094 0,22.094 M 158.58,355.828 c 0,22.094 0,22.094 0,22.094 m -20.395,-46.739 c 0,22.095 0,22.095 0,22.095 m 10.197,-22.095 c 0,22.095 0,22.095 0,22.095 m 20.395,-22.095 c 0,22.095 0,22.095 0,22.095 m 10.198,-22.095 c 0,22.095 0,22.095 0,22.095 M 158.58,331.183 c 0,22.095 0,22.095 0,22.095 m -20.395,-46.739 c 0,22.095 0,22.095 0,22.095 m 10.197,-22.095 c 0,22.095 0,22.095 0,22.095 m 20.395,-22.095 c 0,22.095 0,22.095 0,22.095 m 10.198,-22.095 c 0,22.095 0,22.095 0,22.095 M 158.58,306.539 c 0,22.095 0,22.095 0,22.095 m -20.395,-46.739 c 0,22.095 0,22.095 0,22.095 m 10.197,-22.095 c 0,22.095 0,22.095 0,22.095 m 20.395,-22.095 c 0,22.095 0,22.095 0,22.095 m 10.198,-22.095 c 0,22.095 0,22.095 0,22.095 M 158.58,281.895 c 0,22.095 0,22.095 0,22.095 m -20.395,-46.739 c 0,22.095 0,22.095 0,22.095 m 10.197,-22.095 c 0,22.095 0,22.095 0,22.095 m 20.395,-22.095 c 0,22.095 0,22.095 0,22.095 m 10.198,-22.095 c 0,22.095 0,22.095 0,22.095 M 158.58,257.251 c 0,22.095 0,22.095 0,22.095 m -20.395,-46.739 c 0,22.095 0,22.095 0,22.095 m 10.197,-22.095 c 0,22.095 0,22.095 0,22.095 m 20.395,-22.095 c 0,22.095 0,22.095 0,22.095 m 10.198,-22.095 c 0,22.095 0,22.095 0,22.095 M 158.58,232.607 c 0,22.095 0,22.095 0,22.095 m -20.395,-46.739 c 0,22.094 0,22.094 0,22.094 m 10.197,-22.094 c 0,22.094 0,22.094 0,22.094 m 20.395,-22.094 c 0,22.094 0,22.094 0,22.094 m 10.198,-22.094 c 0,22.094 0,22.094 0,22.094 M 158.58,207.963 c 0,22.094 0,22.094 0,22.094 m -20.395,-46.738 c 0,22.095 0,22.095 0,22.095 m 10.197,-22.095 c 0,22.095 0,22.095 0,22.095 m 20.395,-22.095 c 0,22.095 0,22.095 0,22.095 m 10.198,-22.095 c 0,22.095 0,22.095 0,22.095 M 158.58,183.319 c 0,22.095 0,22.095 0,22.095 m -20.395,-46.74 c 0,22.096 0,22.096 0,22.096 m 10.197,-22.096 c 0,22.096 0,22.096 0,22.096 m 20.395,-22.096 c 0,22.096 0,22.096 0,22.096 m 10.198,-22.096 c 0,22.096 0,22.096 0,22.096 M 158.58,158.674 c 0,22.096 0,22.096 0,22.096 m -20.395,-46.74 c 0,22.095 0,22.095 0,22.095 m 10.197,-22.095 c 0,22.095 0,22.095 0,22.095 m 20.395,-22.095 c 0,22.095 0,22.095 0,22.095 m 10.198,-22.095 c 0,22.095 0,22.095 0,22.095 M 158.58,134.03 c 0,22.095 0,22.095 0,22.095 m -20.395,-46.739 c 0,22.095 0,22.095 0,22.095 m 10.197,-22.095 c 0,22.095 0,22.095 0,22.095 m 20.395,-22.095 c 0,22.095 0,22.095 0,22.095 m 10.198,-22.095 c 0,22.095 0,22.095 0,22.095 m 10.198,594.008 c 0,22.095 0,22.095 0,22.095 m 0,-46.738 c 0,22.093 0,22.093 0,22.093 m 0,-46.738 c 0,22.095 0,22.095 0,22.095 m 0,-46.739 c 0,22.094 0,22.094 0,22.094 m 0,-46.738 c 0,22.095 0,22.095 0,22.095 m 0,-46.738 c 0,22.093 0,22.093 0,22.093 m 0,-46.738 c 0,22.095 0,22.095 0,22.095 m 0,-46.74 c 0,22.095 0,22.095 0,22.095 m 0,-46.739 c 0,22.095 0,22.095 0,22.095 m 0,-46.74 c 0,22.097 0,22.097 0,22.097 m 0,-46.739 c 0,22.094 0,22.094 0,22.094 m 0,-46.739 c 0,22.095 0,22.095 0,22.095 m 0,-46.738 c 0,22.093 0,22.093 0,22.093 m 0,-46.738 c 0,22.095 0,22.095 0,22.095 m 0,-46.739 c 0,22.094 0,22.094 0,22.094 m 0,-46.738 c 0,22.094 0,22.094 0,22.094 m 0,-46.739 c 0,22.095 0,22.095 0,22.095 m 0,-46.739 c 0,22.095 0,22.095 0,22.095 m 0,-46.739 c 0,22.095 0,22.095 0,22.095 m 0,-46.739 c 0,22.095 0,22.095 0,22.095 m 0,-46.739 c 0,22.095 0,22.095 0,22.095 m 0,-46.739 c 0,22.094 0,22.094 0,22.094 m 0,-46.738 c 0,22.095 0,22.095 0,22.095 m 0,-46.74 c 0,22.096 0,22.096 0,22.096 m 0,-46.74 c 0,22.095 0,22.095 0,22.095 m 0,-46.739 c 0,22.095 0,22.095 0,22.095 m 0,618.653 c 0,22.095 0,22.095 0,22.095 m 0,-687.487 c 0,22.094 0,22.094 0,22.094 m -30.593,2.55 c 0,22.095 0,22.095 0,22.095 M 138.185,84.742 c 0,22.094 0,22.094 0,22.094 m 10.197,-22.094 c 0,22.094 0,22.094 0,22.094 m 20.395,-22.094 c 0,22.094 0,22.094 0,22.094 m 10.198,-22.094 c 0,22.094 0,22.094 0,22.094 M 158.58,84.742 c 0,22.094 0,22.094 0,22.094 m 30.593,-46.138 c 0,22.095 0,22.095 0,22.095 M 138.185,60.698 c 0,22.095 0,22.095 0,22.095 m 10.197,-22.095 c 0,22.095 0,22.095 0,22.095 m 20.395,-22.095 c 0,22.095 0,22.095 0,22.095 m 10.198,-22.095 c 0,22.095 0,22.095 0,22.095 M 158.58,60.698 c 0,22.095 0,22.095 0,22.095 m -20.395,568.764 c 0,22.094 0,22.094 0,22.094 m 10.197,-22.094 c 0,22.094 0,22.094 0,22.094 m 20.395,-22.094 c 0,22.094 0,22.094 0,22.094 m 10.198,-22.094 c 0,22.094 0,22.094 0,22.094 M 158.58,651.557 c 0,22.094 0,22.094 0,22.094 M 138.185,158.674 c 0,22.096 0,22.096 0,22.096 m 10.197,-22.096 c 0,22.096 0,22.096 0,22.096 m -10.197,2.549 c 0,22.095 0,22.095 0,22.095 m 10.197,-22.095 c 0,22.095 0,22.095 0,22.095 m 10.198,421.499 c 0,22.095 0,22.095 0,22.095 m 0,-46.738 c 0,22.093 0,22.093 0,22.093 m 0,-46.738 c 0,22.095 0,22.095 0,22.095 m -81.581,2.55 c 0,22.093 0,22.093 0,22.093 m 0,2.55 c 0,22.095 0,22.095 0,22.095 m 0,2.549 c 0,22.094 0,22.094 0,22.094 M 158.58,552.98 c 0,22.095 0,22.095 0,22.095 m 0,76.482 c 0,22.094 0,22.094 0,22.094 M 66.801,651.557 c 0,22.094 0,22.094 0,22.094 m 71.384,2.55 c 0,22.095 0,22.095 0,22.095 m 10.197,-22.095 c 0,22.095 0,22.095 0,22.095 m 20.395,-22.095 c 0,22.095 0,22.095 0,22.095 m 10.198,-22.095 c 0,22.095 0,22.095 0,22.095 M 158.58,676.201 c 0,22.095 0,22.095 0,22.095 M 76.999,676.201 c 0,22.095 0,22.095 0,22.095 M 66.801,676.201 c 0,22.095 0,22.095 0,22.095" /><path
       id="path338"
       style="fill:none;stroke:#a7a5a6;stroke-width:0.5;stroke-linecap:butt;stroke-linejoin:miter;stroke-miterlimit:4;stroke-dasharray:none;stroke-opacity:1"
       d="m 56.604,676.201 c 0,22.095 0,22.095 0,22.095 m 81.581,2.55 c 0,22.093 0,22.093 0,22.093 m 10.197,-22.093 c 0,22.093 0,22.093 0,22.093 m 20.395,-22.093 c 0,22.093 0,22.093 0,22.093 m 10.198,-22.093 c 0,22.093 0,22.093 0,22.093 M 158.58,700.846 c 0,22.093 0,22.093 0,22.093 M 76.999,700.846 c 0,22.093 0,22.093 0,22.093 M 66.801,700.846 c 0,22.093 0,22.093 0,22.093 M 46.406,700.846 c 0,22.093 0,22.093 0,22.093 m 91.779,2.55 c 0,22.095 0,22.095 0,22.095 m 10.197,-22.095 c 0,22.095 0,22.095 0,22.095 m 20.395,-22.095 c 0,22.095 0,22.095 0,22.095 m 10.198,-22.095 c 0,22.095 0,22.095 0,22.095 M 158.58,725.489 c 0,22.095 0,22.095 0,22.095 M 76.999,725.489 c 0,22.095 0,22.095 0,22.095 M 66.801,725.489 c 0,22.095 0,22.095 0,22.095 M 56.604,725.489 c 0,22.095 0,22.095 0,22.095 M 46.406,725.489 c 0,22.095 0,22.095 0,22.095 m 91.779,2.55 c 0,22.095 0,22.095 0,22.095 m 10.197,-22.095 c 0,22.095 0,22.095 0,22.095 m 20.395,-22.095 c 0,22.095 0,22.095 0,22.095 m 10.198,-22.095 c 0,22.095 0,22.095 0,22.095 M 158.58,750.134 c 0,22.095 0,22.095 0,22.095 M 76.999,750.134 c 0,22.095 0,22.095 0,22.095 M 66.801,750.134 c 0,22.095 0,22.095 0,22.095 M 56.604,750.134 c 0,22.095 0,22.095 0,22.095 M 46.406,750.134 c 0,22.095 0,22.095 0,22.095" /><path
       id="path340"
       style="fill:#a7a5a6;fill-opacity:1;fill-rule:nonzero;stroke:none"
       d="m 137.27,323.301 c 2.655,0.16 4.961,-2.268 5.151,-5.424 0.19,-3.156 -1.807,-5.845 -4.461,-6.005 -2.655,-0.16 -4.962,2.269 -5.152,5.424 -0.19,3.157 1.808,5.845 4.462,6.005" /><path
       id="path342"
       style="fill:none;stroke:#a7a5a6;stroke-width:1;stroke-linecap:butt;stroke-linejoin:miter;stroke-miterlimit:4;stroke-dasharray:none;stroke-opacity:1"
       d="m 137.27,323.301 c 2.655,0.16 4.961,-2.268 5.151,-5.424 0.19,-3.156 -1.807,-5.845 -4.461,-6.005 -2.655,-0.16 -4.962,2.269 -5.152,5.424 -0.19,3.157 1.808,5.845 4.462,6.005 z" /><text
       id="text346"
       style="font-variant:normal;font-weight:normal;font-size:5.94859982px;font-family:Helvetica;-inkscape-font-specification:Helvetica;writing-mode:lr-tb;fill:#231f20;fill-opacity:1;fill-rule:nonzero;stroke:none"
       transform="matrix(0,1,1,0,139.5,315.097)"><tspan
         id="tspan344"
         y="0"
         x="0">C</tspan></text>
<path
       id="path348"
       style="fill:#a7a5a6;fill-opacity:1;fill-rule:nonzero;stroke:none"
       d="m 137.698,322.745 c -32.293,0 -32.293,0 -32.293,0" /><path
       id="path350"
       style="fill:none;stroke:#a7a5a6;stroke-width:1.25;stroke-linecap:butt;stroke-linejoin:miter;stroke-miterlimit:4;stroke-dasharray:none;stroke-opacity:1"
       d="m 137.698,322.745 c -32.293,0 -32.293,0 -32.293,0" /><path
       id="path352"
       style="fill:#a7a5a6;fill-opacity:1;fill-rule:nonzero;stroke:none"
       d="m 132.599,347.945 c 2.654,0.16 4.961,-2.268 5.151,-5.424 0.191,-3.156 -1.807,-5.845 -4.461,-6.005 -2.655,-0.16 -4.961,2.269 -5.152,5.425 -0.19,3.156 1.807,5.845 4.462,6.004" /><path
       id="path354"
       style="fill:none;stroke:#a7a5a6;stroke-width:1;stroke-linecap:butt;stroke-linejoin:miter;stroke-miterlimit:4;stroke-dasharray:none;stroke-opacity:1"
       d="m 132.599,347.945 c 2.654,0.16 4.961,-2.268 5.151,-5.424 0.191,-3.156 -1.807,-5.845 -4.461,-6.005 -2.655,-0.16 -4.961,2.269 -5.152,5.425 -0.19,3.156 1.807,5.845 4.462,6.004 z" /><text
       id="text358"
       style="font-variant:normal;font-weight:normal;font-size:5.94859982px;font-family:Helvetica;-inkscape-font-specification:Helvetica;writing-mode:lr-tb;fill:#231f20;fill-opacity:1;fill-rule:nonzero;stroke:none"
       transform="matrix(0,1,1,0,134.83,339.7411)"><tspan
         id="tspan356"
         y="0"
         x="0">D</tspan></text>
<path
       id="path360"
       style="fill:#a7a5a6;fill-opacity:1;fill-rule:nonzero;stroke:none"
       d="m 133.026,347.39 c -32.292,0 -32.292,0 -32.292,0" /><path
       id="path362"
       style="fill:none;stroke:#a7a5a6;stroke-width:1.25;stroke-linecap:butt;stroke-linejoin:miter;stroke-miterlimit:4;stroke-dasharray:none;stroke-opacity:1"
       d="m 133.026,347.39 c -32.292,0 -32.292,0 -32.292,0" /><path
       id="path364"
       style="fill:#a7a5a6;fill-opacity:1;fill-rule:nonzero;stroke:none"
       d="m 127.5,372.589 c 2.655,0.161 4.961,-2.268 5.152,-5.424 0.19,-3.156 -1.808,-5.844 -4.462,-6.004 -2.654,-0.161 -4.961,2.268 -5.152,5.424 -0.19,3.156 1.808,5.844 4.462,6.004" /><path
       id="path366"
       style="fill:none;stroke:#a7a5a6;stroke-width:1;stroke-linecap:butt;stroke-linejoin:miter;stroke-miterlimit:4;stroke-dasharray:none;stroke-opacity:1"
       d="m 127.5,372.589 c 2.655,0.161 4.961,-2.268 5.152,-5.424 0.19,-3.156 -1.808,-5.844 -4.462,-6.004 -2.654,-0.161 -4.961,2.268 -5.152,5.424 -0.19,3.156 1.808,5.844 4.462,6.004 z" /><text
       id="text370"
       style="font-variant:normal;font-weight:normal;font-size:5.94859982px;font-family:Helvetica;-inkscape-font-specification:Helvetica;writing-mode:lr-tb;fill:#231f20;fill-opacity:1;fill-rule:nonzero;stroke:none"
       transform="matrix(0,1,1,0,129.731,364.5481)"><tspan
         id="tspan368"
         y="0"
         x="0">E</tspan></text>
<path
       id="path372"
       style="fill:#a7a5a6;fill-opacity:1;fill-rule:nonzero;stroke:none"
       d="m 127.928,372.033 c -32.293,0 -32.293,0 -32.293,0" /><path
       id="path374"
       style="fill:none;stroke:#a7a5a6;stroke-width:1.25;stroke-linecap:butt;stroke-linejoin:miter;stroke-miterlimit:4;stroke-dasharray:none;stroke-opacity:1"
       d="m 127.928,372.033 c -32.293,0 -32.293,0 -32.293,0" /><path
       id="path376"
       style="fill:#a7a5a6;fill-opacity:1;fill-rule:nonzero;stroke:none"
       d="m 163.769,224.725 c 2.653,0.16 4.96,-2.269 5.151,-5.425 0.19,-3.156 -1.808,-5.844 -4.462,-6.005 -2.655,-0.16 -4.961,2.269 -5.152,5.425 -0.19,3.156 1.807,5.845 4.463,6.005" /><path
       id="path378"
       style="fill:none;stroke:#a7a5a6;stroke-width:1;stroke-linecap:butt;stroke-linejoin:miter;stroke-miterlimit:4;stroke-dasharray:none;stroke-opacity:1"
       d="m 163.769,224.725 c 2.653,0.16 4.96,-2.269 5.151,-5.425 0.19,-3.156 -1.808,-5.844 -4.462,-6.005 -2.655,-0.16 -4.961,2.269 -5.152,5.425 -0.19,3.156 1.807,5.845 4.463,6.005 z" /><text
       id="text382"
       style="font-variant:normal;font-weight:normal;font-size:5.94859982px;font-family:Helvetica;-inkscape-font-specification:Helvetica;writing-mode:lr-tb;fill:#231f20;fill-opacity:1;fill-rule:nonzero;stroke:none"
       transform="matrix(0,1,1,0,165.999,216.8501)"><tspan
         id="tspan380"
         y="0"
         x="0">F</tspan></text>
<path
       id="path384"
       style="fill:#a7a5a6;fill-opacity:1;fill-rule:nonzero;stroke:none"
       d="m 164.196,224.169 c -32.293,0 -32.293,0 -32.293,0" /><path
       id="path386"
       style="fill:none;stroke:#a7a5a6;stroke-width:1;stroke-linecap:butt;stroke-linejoin:miter;stroke-miterlimit:4;stroke-dasharray:none;stroke-opacity:1"
       d="m 164.196,224.169 c -32.293,0 -32.293,0 -32.293,0" /><path
       id="path388"
       style="fill:#a7a5a6;fill-opacity:1;fill-rule:nonzero;stroke:none"
       d="m 178.294,150.792 c 2.655,0.16 4.961,-2.268 5.152,-5.425 0.19,-3.155 -1.808,-5.844 -4.463,-6.004 -2.654,-0.16 -4.96,2.269 -5.151,5.424 -0.19,3.157 1.808,5.845 4.462,6.005" /><path
       id="path390"
       style="fill:none;stroke:#a7a5a6;stroke-width:1;stroke-linecap:butt;stroke-linejoin:miter;stroke-miterlimit:4;stroke-dasharray:none;stroke-opacity:1"
       d="m 178.294,150.792 c 2.655,0.16 4.961,-2.268 5.152,-5.425 0.19,-3.155 -1.808,-5.844 -4.463,-6.004 -2.654,-0.16 -4.96,2.269 -5.151,5.424 -0.19,3.157 1.808,5.845 4.462,6.005 z" /><text
       id="text394"
       style="font-variant:normal;font-weight:normal;font-size:5.94859982px;font-family:Helvetica;-inkscape-font-specification:Helvetica;writing-mode:lr-tb;fill:#231f20;fill-opacity:1;fill-rule:nonzero;stroke:none"
       transform="matrix(0,1,1,0,180.524,142.5881)"><tspan
         id="tspan392"
         y="0"
         x="0">C</tspan></text>
<path
       id="path396"
       style="fill:#a7a5a6;fill-opacity:1;fill-rule:nonzero;stroke:none"
       d="m 178.722,150.237 c -32.293,0 -32.293,0 -32.293,0" /><path
       id="path398"
       style="fill:none;stroke:#a7a5a6;stroke-width:1.25;stroke-linecap:butt;stroke-linejoin:miter;stroke-miterlimit:4;stroke-dasharray:none;stroke-opacity:1"
       d="m 178.722,150.237 c -32.293,0 -32.293,0 -32.293,0" /><path
       id="path400"
       style="fill:#a7a5a6;fill-opacity:1;fill-rule:nonzero;stroke:none"
       d="m 173.623,175.437 c 2.655,0.16 4.961,-2.269 5.152,-5.425 0.19,-3.156 -1.808,-5.845 -4.462,-6.005 -2.654,-0.16 -4.961,2.269 -5.152,5.425 -0.19,3.156 1.808,5.844 4.462,6.005" /><path
       id="path402"
       style="fill:none;stroke:#a7a5a6;stroke-width:1;stroke-linecap:butt;stroke-linejoin:miter;stroke-miterlimit:4;stroke-dasharray:none;stroke-opacity:1"
       d="m 173.623,175.437 c 2.655,0.16 4.961,-2.269 5.152,-5.425 0.19,-3.156 -1.808,-5.845 -4.462,-6.005 -2.654,-0.16 -4.961,2.269 -5.152,5.425 -0.19,3.156 1.808,5.844 4.462,6.005 z" /><text
       id="text406"
       style="font-variant:normal;font-weight:normal;font-size:5.94859982px;font-family:Helvetica;-inkscape-font-specification:Helvetica;writing-mode:lr-tb;fill:#231f20;fill-opacity:1;fill-rule:nonzero;stroke:none"
       transform="matrix(0,1,1,0,175.853,167.2311)"><tspan
         id="tspan404"
         y="0"
         x="0">D</tspan></text>
<path
       id="path408"
       style="fill:#a7a5a6;fill-opacity:1;fill-rule:nonzero;stroke:none"
       d="m 174.051,174.88 c -32.293,0 -32.293,0 -32.293,0" /><path
       id="path410"
       style="fill:none;stroke:#a7a5a6;stroke-width:1.25;stroke-linecap:butt;stroke-linejoin:miter;stroke-miterlimit:4;stroke-dasharray:none;stroke-opacity:1"
       d="m 174.051,174.88 c -32.293,0 -32.293,0 -32.293,0" /><path
       id="path412"
       style="fill:#a7a5a6;fill-opacity:1;fill-rule:nonzero;stroke:none"
       d="m 168.525,200.081 c 2.654,0.16 4.96,-2.269 5.151,-5.425 0.191,-3.156 -1.807,-5.844 -4.462,-6.005 -2.654,-0.16 -4.961,2.269 -5.151,5.425 -0.191,3.156 1.807,5.844 4.462,6.005" /><path
       id="path414"
       style="fill:none;stroke:#a7a5a6;stroke-width:1;stroke-linecap:butt;stroke-linejoin:miter;stroke-miterlimit:4;stroke-dasharray:none;stroke-opacity:1"
       d="m 168.525,200.081 c 2.654,0.16 4.96,-2.269 5.151,-5.425 0.191,-3.156 -1.807,-5.844 -4.462,-6.005 -2.654,-0.16 -4.961,2.269 -5.151,5.425 -0.191,3.156 1.807,5.844 4.462,6.005 z" /><text
       id="text418"
       style="font-variant:normal;font-weight:normal;font-size:5.94859982px;font-family:Helvetica;-inkscape-font-specification:Helvetica;writing-mode:lr-tb;fill:#231f20;fill-opacity:1;fill-rule:nonzero;stroke:none"
       transform="matrix(0,1,1,0,170.753,192.0401)"><tspan
         id="tspan416"
         y="0"
         x="0">E</tspan></text>
<path
       id="path420"
       style="fill:#a7a5a6;fill-opacity:1;fill-rule:nonzero;stroke:none"
       d="m 168.952,199.524 c -32.292,0 -32.292,0 -32.292,0" /><path
       id="path422"
       style="fill:none;stroke:#a7a5a6;stroke-width:1.25;stroke-linecap:butt;stroke-linejoin:miter;stroke-miterlimit:4;stroke-dasharray:none;stroke-opacity:1"
       d="m 168.952,199.524 c -32.292,0 -32.292,0 -32.292,0" /><path
       id="path424"
       style="fill:#a7a5a6;fill-opacity:1;fill-rule:nonzero;stroke:none"
       d="m 142.827,298.657 c 2.654,0.16 4.961,-2.268 5.152,-5.425 0.19,-3.155 -1.808,-5.844 -4.462,-6.004 -2.654,-0.16 -4.961,2.269 -5.152,5.424 -0.19,3.157 1.808,5.845 4.462,6.005" /><path
       id="path426"
       style="fill:none;stroke:#a7a5a6;stroke-width:1;stroke-linecap:butt;stroke-linejoin:miter;stroke-miterlimit:4;stroke-dasharray:none;stroke-opacity:1"
       d="m 142.827,298.657 c 2.654,0.16 4.961,-2.268 5.152,-5.425 0.19,-3.155 -1.808,-5.844 -4.462,-6.004 -2.654,-0.16 -4.961,2.269 -5.152,5.424 -0.19,3.157 1.808,5.845 4.462,6.005 z" /><text
       id="text430"
       style="font-variant:normal;font-weight:normal;font-size:5.94859982px;font-family:Helvetica;-inkscape-font-specification:Helvetica;writing-mode:lr-tb;fill:#231f20;fill-opacity:1;fill-rule:nonzero;stroke:none"
       transform="matrix(0,1,1,0,145.058,290.6161)"><tspan
         id="tspan428"
         y="0"
         x="0">B</tspan></text>
<path
       id="path432"
       style="fill:#a7a5a6;fill-opacity:1;fill-rule:nonzero;stroke:none"
       d="m 143.255,298.101 c -32.293,0 -32.293,0 -32.293,0" /><path
       id="path434"
       style="fill:none;stroke:#a7a5a6;stroke-width:1.25;stroke-linecap:butt;stroke-linejoin:miter;stroke-miterlimit:4;stroke-dasharray:none;stroke-opacity:1"
       d="m 143.255,298.101 c -32.293,0 -32.293,0 -32.293,0" /><path
       id="path436"
       style="fill:#a7a5a6;fill-opacity:1;fill-rule:nonzero;stroke:none"
       d="m 183.455,126.148 c 2.654,0.161 4.961,-2.268 5.151,-5.424 0.19,-3.156 -1.808,-5.845 -4.462,-6.005 -2.654,-0.16 -4.961,2.269 -5.151,5.425 -0.191,3.156 1.807,5.844 4.462,6.004" /><path
       id="path438"
       style="fill:none;stroke:#a7a5a6;stroke-width:1;stroke-linecap:butt;stroke-linejoin:miter;stroke-miterlimit:4;stroke-dasharray:none;stroke-opacity:1"
       d="m 183.455,126.148 c 2.654,0.161 4.961,-2.268 5.151,-5.424 0.19,-3.156 -1.808,-5.845 -4.462,-6.005 -2.654,-0.16 -4.961,2.269 -5.151,5.425 -0.191,3.156 1.807,5.844 4.462,6.004 z" /><text
       id="text442"
       style="font-variant:normal;font-weight:normal;font-size:5.94859982px;font-family:Helvetica;-inkscape-font-specification:Helvetica;writing-mode:lr-tb;fill:#231f20;fill-opacity:1;fill-rule:nonzero;stroke:none"
       transform="matrix(0,1,1,0,185.685,118.1071)"><tspan
         id="tspan440"
         y="0"
         x="0">B</tspan></text>
<path
       id="path444"
       style="fill:#a7a5a6;fill-opacity:1;fill-rule:nonzero;stroke:none"
       d="m 183.882,125.592 c -32.293,0 -32.293,0 -32.293,0" /><path
       id="path446"
       style="fill:none;stroke:#a7a5a6;stroke-width:1.25;stroke-linecap:butt;stroke-linejoin:miter;stroke-miterlimit:4;stroke-dasharray:none;stroke-opacity:1"
       d="m 183.882,125.592 c -32.293,0 -32.293,0 -32.293,0" /><path
       id="path448"
       style="fill:#a7a5a6;fill-opacity:1;fill-rule:nonzero;stroke:none"
       d="m 72.461,632.245 c -2.653,-0.159 -4.961,2.27 -5.151,5.425 -0.19,3.156 1.808,5.845 4.462,6.005 2.654,0.161 4.961,-2.27 5.151,-5.423 0.191,-3.158 -1.807,-5.846 -4.462,-6.007" /><path
       id="path450"
       style="fill:none;stroke:#a7a5a6;stroke-width:1;stroke-linecap:butt;stroke-linejoin:miter;stroke-miterlimit:4;stroke-dasharray:none;stroke-opacity:1"
       d="m 72.461,632.245 c -2.653,-0.159 -4.961,2.27 -5.151,5.425 -0.19,3.156 1.808,5.845 4.462,6.005 2.654,0.161 4.961,-2.27 5.151,-5.423 0.191,-3.158 -1.807,-5.846 -4.462,-6.007 z" /><path
       id="path452"
       style="fill:#a7a5a6;fill-opacity:1;fill-rule:nonzero;stroke:none"
       d="m 72.034,632.802 c 32.293,0 32.293,0 32.293,0" /><path
       id="path454"
       style="fill:none;stroke:#a7a5a6;stroke-width:1;stroke-linecap:butt;stroke-linejoin:miter;stroke-miterlimit:4;stroke-dasharray:none;stroke-opacity:1"
       d="m 72.034,632.802 c 32.293,0 32.293,0 32.293,0" /><text
       id="text458"
       style="font-variant:normal;font-weight:normal;font-size:5.94859982px;font-family:Helvetica;-inkscape-font-specification:Helvetica;writing-mode:lr-tb;fill:#231f20;fill-opacity:1;fill-rule:nonzero;stroke:none"
       transform="matrix(0,1,1,0,74.21,635.634)"><tspan
         id="tspan456"
         y="0"
         x="0">B</tspan></text>
<path
       id="path460"
       style="fill:#a7a5a6;fill-opacity:1;fill-rule:nonzero;stroke:none"
       d="m 76.996,607.602 c -2.654,-0.161 -4.961,2.268 -5.151,5.424 -0.191,3.158 1.807,5.844 4.461,6.005 2.655,0.159 4.962,-2.269 5.152,-5.425 0.191,-3.156 -1.808,-5.844 -4.462,-6.004" /><path
       id="path462"
       style="fill:none;stroke:#a7a5a6;stroke-width:1;stroke-linecap:butt;stroke-linejoin:miter;stroke-miterlimit:4;stroke-dasharray:none;stroke-opacity:1"
       d="m 76.996,607.602 c -2.654,-0.161 -4.961,2.268 -5.151,5.424 -0.191,3.158 1.807,5.844 4.461,6.005 2.655,0.159 4.962,-2.269 5.152,-5.425 0.191,-3.156 -1.808,-5.844 -4.462,-6.004 z" /><path
       id="path464"
       style="fill:#a7a5a6;fill-opacity:1;fill-rule:nonzero;stroke:none"
       d="m 76.568,608.157 c 32.293,0 32.293,0 32.293,0" /><path
       id="path466"
       style="fill:none;stroke:#a7a5a6;stroke-width:1.25;stroke-linecap:butt;stroke-linejoin:miter;stroke-miterlimit:4;stroke-dasharray:none;stroke-opacity:1"
       d="m 76.568,608.157 c 32.293,0 32.293,0 32.293,0" /><text
       id="text470"
       style="font-variant:normal;font-weight:normal;font-size:5.94859982px;font-family:Helvetica;-inkscape-font-specification:Helvetica;writing-mode:lr-tb;fill:#231f20;fill-opacity:1;fill-rule:nonzero;stroke:none"
       transform="matrix(0,1,1,0,78.7456,610.989)"><tspan
         id="tspan468"
         y="0"
         x="0">A</tspan></text>
<path
       id="path472"
       style="fill:#a7a5a6;fill-opacity:1;fill-rule:nonzero;stroke:none"
       d="m 82.118,582.958 c -2.655,-0.16 -4.962,2.269 -5.152,5.424 -0.191,3.157 1.807,5.846 4.462,6.005 2.654,0.16 4.961,-2.269 5.151,-5.424 0.19,-3.157 -1.808,-5.846 -4.461,-6.005" /><path
       id="path474"
       style="fill:none;stroke:#a7a5a6;stroke-width:1;stroke-linecap:butt;stroke-linejoin:miter;stroke-miterlimit:4;stroke-dasharray:none;stroke-opacity:1"
       d="m 82.118,582.958 c -2.655,-0.16 -4.962,2.269 -5.152,5.424 -0.191,3.157 1.807,5.846 4.462,6.005 2.654,0.16 4.961,-2.269 5.151,-5.424 0.19,-3.157 -1.808,-5.846 -4.461,-6.005 z" /><path
       id="path476"
       style="fill:#a7a5a6;fill-opacity:1;fill-rule:nonzero;stroke:none"
       d="m 81.689,583.514 c 32.293,0 32.293,0 32.293,0" /><path
       id="path478"
       style="fill:none;stroke:#a7a5a6;stroke-width:1.25;stroke-linecap:butt;stroke-linejoin:miter;stroke-miterlimit:4;stroke-dasharray:none;stroke-opacity:1"
       d="m 81.689,583.514 c 32.293,0 32.293,0 32.293,0" /><text
       id="text482"
       style="font-variant:normal;font-weight:normal;font-size:5.94859982px;font-family:Helvetica;-inkscape-font-specification:Helvetica;writing-mode:lr-tb;fill:#231f20;fill-opacity:1;fill-rule:nonzero;stroke:none"
       transform="matrix(0,1,1,0,83.8657,586.016)"><tspan
         id="tspan480"
         y="0"
         x="0">G</tspan></text>
<path
       id="path484"
       style="fill:#a7a5a6;fill-opacity:1;fill-rule:nonzero;stroke:none"
       d="m 46.889,755.466 c -2.654,-0.159 -4.961,2.269 -5.152,5.425 -0.19,3.156 1.808,5.844 4.462,6.005 2.654,0.161 4.961,-2.27 5.152,-5.423 0.19,-3.159 -1.808,-5.846 -4.462,-6.007" /><path
       id="path486"
       style="fill:none;stroke:#a7a5a6;stroke-width:1;stroke-linecap:butt;stroke-linejoin:miter;stroke-miterlimit:4;stroke-dasharray:none;stroke-opacity:1"
       d="m 46.889,755.466 c -2.654,-0.159 -4.961,2.269 -5.152,5.425 -0.19,3.156 1.808,5.844 4.462,6.005 2.654,0.161 4.961,-2.27 5.152,-5.423 0.19,-3.159 -1.808,-5.846 -4.462,-6.007 z" /><path
       id="path488"
       style="fill:#a7a5a6;fill-opacity:1;fill-rule:nonzero;stroke:none"
       d="m 46.461,756.022 c 32.292,0 32.292,0 32.292,0" /><path
       id="path490"
       style="fill:none;stroke:#a7a5a6;stroke-width:1.25;stroke-linecap:butt;stroke-linejoin:miter;stroke-miterlimit:4;stroke-dasharray:none;stroke-opacity:1"
       d="m 46.461,756.022 c 32.292,0 32.292,0 32.292,0" /><text
       id="text494"
       style="font-variant:normal;font-weight:normal;font-size:5.94859982px;font-family:Helvetica;-inkscape-font-specification:Helvetica;writing-mode:lr-tb;fill:#231f20;fill-opacity:1;fill-rule:nonzero;stroke:none"
       transform="matrix(0,1,1,0,48.6372,758.523)"><tspan
         id="tspan492"
         y="0"
         x="0">G</tspan></text>
<path
       id="path496"
       style="fill:#a7a5a6;fill-opacity:1;fill-rule:nonzero;stroke:none"
       d="m 87.192,558.313 c -2.655,-0.16 -4.962,2.269 -5.152,5.424 -0.19,3.158 1.808,5.846 4.462,6.005 2.655,0.16 4.961,-2.268 5.151,-5.424 0.191,-3.157 -1.807,-5.844 -4.461,-6.005" /><path
       id="path498"
       style="fill:none;stroke:#a7a5a6;stroke-width:1;stroke-linecap:butt;stroke-linejoin:miter;stroke-miterlimit:4;stroke-dasharray:none;stroke-opacity:1"
       d="m 87.192,558.313 c -2.655,-0.16 -4.962,2.269 -5.152,5.424 -0.19,3.158 1.808,5.846 4.462,6.005 2.655,0.16 4.961,-2.268 5.151,-5.424 0.191,-3.157 -1.807,-5.844 -4.461,-6.005 z" /><path
       id="path500"
       style="fill:#a7a5a6;fill-opacity:1;fill-rule:nonzero;stroke:none"
       d="m 86.764,558.869 c 32.293,0 32.293,0 32.293,0" /><path
       id="path502"
       style="fill:none;stroke:#a7a5a6;stroke-width:1.25;stroke-linecap:butt;stroke-linejoin:miter;stroke-miterlimit:4;stroke-dasharray:none;stroke-opacity:1"
       d="m 86.764,558.869 c 32.293,0 32.293,0 32.293,0" /><text
       id="text506"
       style="font-variant:normal;font-weight:normal;font-size:5.94859982px;font-family:Helvetica;-inkscape-font-specification:Helvetica;writing-mode:lr-tb;fill:#231f20;fill-opacity:1;fill-rule:nonzero;stroke:none"
       transform="matrix(0,1,1,0,88.9399,561.868)"><tspan
         id="tspan504"
         y="0"
         x="0">F</tspan></text>
<path
       id="path508"
       style="fill:#a7a5a6;fill-opacity:1;fill-rule:nonzero;stroke:none"
       d="m 51.739,730.823 c -2.654,-0.161 -4.961,2.268 -5.152,5.424 -0.19,3.157 1.808,5.845 4.462,6.005 2.655,0.159 4.961,-2.27 5.152,-5.425 0.191,-3.156 -1.807,-5.845 -4.462,-6.004" /><path
       id="path510"
       style="fill:none;stroke:#a7a5a6;stroke-width:1;stroke-linecap:butt;stroke-linejoin:miter;stroke-miterlimit:4;stroke-dasharray:none;stroke-opacity:1"
       d="m 51.739,730.823 c -2.654,-0.161 -4.961,2.268 -5.152,5.424 -0.19,3.157 1.808,5.845 4.462,6.005 2.655,0.159 4.961,-2.27 5.152,-5.425 0.191,-3.156 -1.807,-5.845 -4.462,-6.004 z" /><path
       id="path512"
       style="fill:#a7a5a6;fill-opacity:1;fill-rule:nonzero;stroke:none"
       d="m 51.311,731.378 c 32.293,0 32.293,0 32.293,0" /><path
       id="path514"
       style="fill:none;stroke:#a7a5a6;stroke-width:1.25;stroke-linecap:butt;stroke-linejoin:miter;stroke-miterlimit:4;stroke-dasharray:none;stroke-opacity:1"
       d="m 51.311,731.378 c 32.293,0 32.293,0 32.293,0" /><text
       id="text518"
       style="font-variant:normal;font-weight:normal;font-size:5.94859982px;font-family:Helvetica;-inkscape-font-specification:Helvetica;writing-mode:lr-tb;fill:#231f20;fill-opacity:1;fill-rule:nonzero;stroke:none"
       transform="matrix(0,1,1,0,53.4883,734.376)"><tspan
         id="tspan516"
         y="0"
         x="0">F</tspan></text>
<path
       id="path520"
       style="fill:#a7a5a6;fill-opacity:1;fill-rule:nonzero;stroke:none"
       d="m 66.797,656.89 c -2.655,-0.161 -4.962,2.269 -5.152,5.423 -0.19,3.158 1.808,5.845 4.461,6.006 2.655,0.16 4.962,-2.268 5.152,-5.424 0.191,-3.157 -1.807,-5.844 -4.461,-6.005" /><path
       id="path522"
       style="fill:none;stroke:#a7a5a6;stroke-width:1;stroke-linecap:butt;stroke-linejoin:miter;stroke-miterlimit:4;stroke-dasharray:none;stroke-opacity:1"
       d="m 66.797,656.89 c -2.655,-0.161 -4.962,2.269 -5.152,5.423 -0.19,3.158 1.808,5.845 4.461,6.006 2.655,0.16 4.962,-2.268 5.152,-5.424 0.191,-3.157 -1.807,-5.844 -4.461,-6.005 z" /><path
       id="path524"
       style="fill:#a7a5a6;fill-opacity:1;fill-rule:nonzero;stroke:none"
       d="m 66.368,657.446 c 32.293,0 32.293,0 32.293,0" /><path
       id="path526"
       style="fill:none;stroke:#a7a5a6;stroke-width:1.25;stroke-linecap:butt;stroke-linejoin:miter;stroke-miterlimit:4;stroke-dasharray:none;stroke-opacity:1"
       d="m 66.368,657.446 c 32.293,0 32.293,0 32.293,0" /><text
       id="text530"
       style="font-variant:normal;font-weight:normal;font-size:5.94859982px;font-family:Helvetica;-inkscape-font-specification:Helvetica;writing-mode:lr-tb;fill:#231f20;fill-opacity:1;fill-rule:nonzero;stroke:none"
       transform="matrix(0,1,1,0,68.5454,660.114)"><tspan
         id="tspan528"
         y="0"
         x="0">C</tspan></text>
<path
       id="path532"
       style="fill:#a7a5a6;fill-opacity:1;fill-rule:nonzero;stroke:none"
       d="m 147.937,274.013 c 2.654,0.16 4.96,-2.269 5.151,-5.424 0.191,-3.157 -1.808,-5.845 -4.462,-6.005 -2.654,-0.16 -4.961,2.269 -5.151,5.424 -0.191,3.157 1.808,5.845 4.462,6.005" /><path
       id="path534"
       style="fill:none;stroke:#a7a5a6;stroke-width:1;stroke-linecap:butt;stroke-linejoin:miter;stroke-miterlimit:4;stroke-dasharray:none;stroke-opacity:1"
       d="m 147.937,274.013 c 2.654,0.16 4.96,-2.269 5.151,-5.424 0.191,-3.157 -1.808,-5.845 -4.462,-6.005 -2.654,-0.16 -4.961,2.269 -5.151,5.424 -0.191,3.157 1.808,5.845 4.462,6.005 z" /><text
       id="text538"
       style="font-variant:normal;font-weight:normal;font-size:5.94859982px;font-family:Helvetica;-inkscape-font-specification:Helvetica;writing-mode:lr-tb;fill:#231f20;fill-opacity:1;fill-rule:nonzero;stroke:none"
       transform="matrix(0,1,1,0,150.167,265.972)"><tspan
         id="tspan536"
         y="0"
         x="0">A</tspan></text>
<path
       id="path540"
       style="fill:#a7a5a6;fill-opacity:1;fill-rule:nonzero;stroke:none"
       d="m 148.365,273.457 c -32.293,0 -32.293,0 -32.293,0" /><path
       id="path542"
       style="fill:none;stroke:#a7a5a6;stroke-width:1;stroke-linecap:butt;stroke-linejoin:miter;stroke-miterlimit:4;stroke-dasharray:none;stroke-opacity:1"
       d="m 148.365,273.457 c -32.293,0 -32.293,0 -32.293,0" /><path
       id="path544"
       style="fill:#a7a5a6;fill-opacity:1;fill-rule:nonzero;stroke:none"
       d="m 188.652,101.504 c 2.655,0.161 4.961,-2.268 5.152,-5.424 0.19,-3.157 -1.807,-5.844 -4.462,-6.005 -2.654,-0.16 -4.961,2.269 -5.152,5.424 -0.19,3.157 1.808,5.845 4.462,6.005" /><path
       id="path546"
       style="fill:none;stroke:#a7a5a6;stroke-width:1;stroke-linecap:butt;stroke-linejoin:miter;stroke-miterlimit:4;stroke-dasharray:none;stroke-opacity:1"
       d="m 188.652,101.504 c 2.655,0.161 4.961,-2.268 5.152,-5.424 0.19,-3.157 -1.807,-5.844 -4.462,-6.005 -2.654,-0.16 -4.961,2.269 -5.152,5.424 -0.19,3.157 1.808,5.845 4.462,6.005 z" /><text
       id="text550"
       style="font-variant:normal;font-weight:normal;font-size:5.94859982px;font-family:Helvetica;-inkscape-font-specification:Helvetica;writing-mode:lr-tb;fill:#231f20;fill-opacity:1;fill-rule:nonzero;stroke:none"
       transform="matrix(0,1,1,0,190.883,93.463)"><tspan
         id="tspan548"
         y="0"
         x="0">A</tspan></text>
<path
       id="path552"
       style="fill:#a7a5a6;fill-opacity:1;fill-rule:nonzero;stroke:none"
       d="m 189.08,100.948 c -32.293,0 -32.293,0 -32.293,0" /><path
       id="path554"
       style="fill:none;stroke:#a7a5a6;stroke-width:1;stroke-linecap:butt;stroke-linejoin:miter;stroke-miterlimit:4;stroke-dasharray:none;stroke-opacity:1"
       d="m 189.08,100.948 c -32.293,0 -32.293,0 -32.293,0" /><path
       id="path556"
       style="fill:#a7a5a6;fill-opacity:1;fill-rule:nonzero;stroke:none"
       d="m 158.551,249.369 c 2.654,0.16 4.961,-2.269 5.151,-5.425 0.191,-3.155 -1.807,-5.844 -4.462,-6.004 -2.655,-0.161 -4.961,2.268 -5.151,5.424 -0.191,3.157 1.807,5.844 4.462,6.005" /><path
       id="path558"
       style="fill:none;stroke:#a7a5a6;stroke-width:1;stroke-linecap:butt;stroke-linejoin:miter;stroke-miterlimit:4;stroke-dasharray:none;stroke-opacity:1"
       d="m 158.551,249.369 c 2.654,0.16 4.961,-2.269 5.151,-5.425 0.191,-3.155 -1.807,-5.844 -4.462,-6.004 -2.655,-0.161 -4.961,2.268 -5.151,5.424 -0.191,3.157 1.807,5.844 4.462,6.005 z" /><text
       id="text562"
       style="font-variant:normal;font-weight:normal;font-size:5.94859982px;font-family:Helvetica;-inkscape-font-specification:Helvetica;writing-mode:lr-tb;fill:#231f20;fill-opacity:1;fill-rule:nonzero;stroke:none"
       transform="matrix(0,1,1,0,160.78,240.9971)"><tspan
         id="tspan560"
         y="0"
         x="0">G</tspan></text>
<path
       id="path564"
       style="fill:#a7a5a6;fill-opacity:1;fill-rule:nonzero;stroke:none"
       d="m 158.979,248.813 c -32.293,0 -32.293,0 -32.293,0" /><path
       id="path566"
       style="fill:none;stroke:#a7a5a6;stroke-width:1.25;stroke-linecap:butt;stroke-linejoin:miter;stroke-miterlimit:4;stroke-dasharray:none;stroke-opacity:1"
       d="m 158.979,248.813 c -32.293,0 -32.293,0 -32.293,0" /><path
       id="path568"
       style="fill:#a7a5a6;fill-opacity:1;fill-rule:nonzero;stroke:none"
       d="m 193.516,77.46 c 2.654,0.161 4.961,-2.269 5.151,-5.424 0.191,-3.156 -1.808,-5.845 -4.462,-6.005 -2.654,-0.16 -4.961,2.269 -5.151,5.425 -0.191,3.156 1.807,5.844 4.462,6.004" /><path
       id="path570"
       style="fill:none;stroke:#a7a5a6;stroke-width:1;stroke-linecap:butt;stroke-linejoin:miter;stroke-miterlimit:4;stroke-dasharray:none;stroke-opacity:1"
       d="m 193.516,77.46 c 2.654,0.161 4.961,-2.269 5.151,-5.424 0.191,-3.156 -1.808,-5.845 -4.462,-6.005 -2.654,-0.16 -4.961,2.269 -5.151,5.425 -0.191,3.156 1.807,5.844 4.462,6.004 z" /><text
       id="text574"
       style="font-variant:normal;font-weight:normal;font-size:5.94859982px;font-family:Helvetica;-inkscape-font-specification:Helvetica;writing-mode:lr-tb;fill:#231f20;fill-opacity:1;fill-rule:nonzero;stroke:none"
       transform="matrix(0,1,1,0,195.745,69.089)"><tspan
         id="tspan572"
         y="0"
         x="0">G</tspan></text>
<path
       id="path576"
       style="fill:#a7a5a6;fill-opacity:1;fill-rule:nonzero;stroke:none"
       d="m 193.943,76.904 c -32.293,0 -32.293,0 -32.293,0" /><path
       id="path578"
       style="fill:none;stroke:#a7a5a6;stroke-width:1.25;stroke-linecap:butt;stroke-linejoin:miter;stroke-miterlimit:4;stroke-dasharray:none;stroke-opacity:1"
       d="m 193.943,76.904 c -32.293,0 -32.293,0 -32.293,0" /><path
       id="path580"
       style="fill:#231f20;fill-opacity:1;fill-rule:nonzero;stroke:none"
       d="m 142.898,68.925 c -2.277,-1.595 0.397,3.574 -3.176,3.574 -3.574,0 -3.574,-1.192 -3.574,-3.574 0,-2.382 0,-4.368 3.574,-4.368 3.574,0 7.148,3.574 6.75,7.545 -0.397,3.97 -2.383,6.75 -4.368,6.75 -1.985,0 -1.985,0.794 -8.735,0 -6.751,-0.794 -37.327,-7.942 -38.517,-7.942 -1.192,0 -10.722,-1.985 -12.708,3.177 -1.985,5.162 6.751,3.971 12.708,-1.588 5.956,-5.559 13.898,-15.487 25.413,-12.707 11.515,2.779 9.133,11.515 9.133,14.692 0,3.177 -5.56,17.075 -18.266,4.368 -1.985,-5.956 2.779,-13.501 7.544,-12.309 4.765,1.19 6.354,5.559 6.354,5.559 l -4.368,-2.383 c 0,0 -13.104,4.368 -1.191,11.118 4.367,0 12.707,-3.574 6.75,-14.692 -5.162,-3.97 -11.515,-6.353 -19.457,1.588 -7.942,7.942 -13.898,16.678 -31.37,7.942 0,-4.368 10.324,-8.735 19.06,-6.75 8.736,1.985 44.077,9.927 46.856,8.338 2.779,-1.588 5.56,-5.559 1.588,-8.338" /><path
       id="path582"
       style="fill:none;stroke:#231f20;stroke-width:1;stroke-linecap:round;stroke-linejoin:round;stroke-miterlimit:4;stroke-dasharray:none;stroke-opacity:1"
       d="m 87.196,57.565 c 40.791,0 40.791,0 40.791,0 M 87.196,773.073 c 40.791,0 40.791,0 40.791,0" /><text
       id="text586"
       style="font-variant:normal;font-weight:bold;font-size:7.64820004px;font-family:Helvetica;-inkscape-font-specification:Helvetica-Bold;writing-mode:lr-tb;fill:#231f20;fill-opacity:1;fill-rule:nonzero;stroke:none"
       transform="matrix(0,1,1,0,557.1339,635.199)"><tspan
         id="tspan584"
         y="0"
         x="0 -24.64403 -49.502975 -73.508377 -98.367325 -123.22015 123.00677 99.000595 74.143181 49.288826 -147.86571 -172.50974 -197.15376 -222.01195 -246.01811 -270.87631 -295.73065 -320.37469 -345.01871 -369.66351 -517.52924 -542.17328 -394.52246 -566.43182 -418.52863 -443.38757 -468.24039 -492.88443 24.6425">BAGFEDGFEDCBAGFEDCBABAGGFEDCC</tspan></text>
<path
       id="path588"
       style="fill:none;stroke:#a7a5a6;stroke-width:0.5;stroke-linecap:butt;stroke-linejoin:miter;stroke-miterlimit:4;stroke-dasharray:none;stroke-opacity:1"
       d="m 56.604,700.846 c 0,22.093 0,22.093 0,22.093" /><path
       id="path590"
       style="fill:#a7a5a6;fill-opacity:1;fill-rule:nonzero;stroke:none"
       d="m 56.867,706.179 c -2.655,-0.16 -4.962,2.268 -5.152,5.424 -0.191,3.157 1.807,5.844 4.462,6.004 2.654,0.161 4.961,-2.268 5.151,-5.424 0.191,-3.157 -1.807,-5.845 -4.461,-6.004" /><path
       id="path592"
       style="fill:none;stroke:#a7a5a6;stroke-width:1;stroke-linecap:butt;stroke-linejoin:miter;stroke-miterlimit:4;stroke-dasharray:none;stroke-opacity:1"
       d="m 56.867,706.179 c -2.655,-0.16 -4.962,2.268 -5.152,5.424 -0.191,3.157 1.807,5.844 4.462,6.004 2.654,0.161 4.961,-2.268 5.151,-5.424 0.191,-3.157 -1.807,-5.845 -4.461,-6.004 z" /><text
       id="text596"
       style="font-variant:normal;font-weight:normal;font-size:5.94859982px;font-family:Helvetica;-inkscape-font-specification:Helvetica;writing-mode:lr-tb;fill:#231f20;fill-opacity:1;fill-rule:nonzero;stroke:none"
       transform="matrix(0,1,1,0,58.541,709.567)"><tspan
         id="tspan594"
         y="0"
         x="0">E</tspan></text>
<path
       id="path598"
       style="fill:#a7a5a6;fill-opacity:1;fill-rule:nonzero;stroke:none"
       d="m 56.438,706.734 c 32.294,0 32.294,0 32.294,0" /><path
       id="path600"
       style="fill:none;stroke:#a7a5a6;stroke-width:1.25;stroke-linecap:butt;stroke-linejoin:miter;stroke-miterlimit:4;stroke-dasharray:none;stroke-opacity:1"
       d="m 56.438,706.734 c 32.294,0 32.294,0 32.294,0" /><text
       id="text604"
       style="font-variant:normal;font-weight:bold;font-size:11.04730034px;font-family:Helvetica;-inkscape-font-specification:Helvetica-Bold;writing-mode:lr-tb;fill:#231f20;fill-opacity:1;fill-rule:nonzero;stroke:none"
       transform="matrix(-1,0,0,0.99999095,429.1769,28.4583)"><tspan
         id="tspan602"
         y="0"
         x="0 7.9761505 15.3447 22.713249 25.783293 34.378094 41.127995 44.198036 52.174187 60.150337 68.126488 77.328888 85.923691 93.899841 96.970993 104.94714">KEY OF HARMONICA</tspan></text>
<text
       id="text618"
       style="font-variant:normal;font-weight:normal;font-size:8px;font-family:Helvetica;-inkscape-font-specification:Helvetica;writing-mode:lr-tb;fill:#231f20;fill-opacity:1;fill-rule:nonzero;stroke:none"
       transform="matrix(0,1,1,0,575.0959,60.5724)"><tspan
         id="tspan606"
         y="0"
         x="0 4.6719999 11 15.672 21 25.288 27.0648 31.392">+ = blow</tspan><tspan
         id="tspan608"
         y="9"
         x="0 2.664 11 15.672 21 25.448 28.032 32.320801">- = draw</tspan><tspan
         id="tspan610"
         y="18"
         x="0 1.216 11 15.672 21 25.448 29.896 31.672001 33.896 37.896 40.119999 44.568001 49.015999 51.240799 55.688801 60.136799 64.584801">’ = halfstep bend</tspan><tspan
         id="tspan612"
         y="0"
         x="92.32 93.639999 94.856003 103.32 107.992 113.32 115.544 121.24 125.688 127.912 132.36 136.808 138.584 140.808 144.808 147.032 151.48 155.92799 159.92799 162.15199 164.81599 170.592 175.03999 179.48801 181.26401 185.71201 187.936 191.936 194.16 198.608 203.056 205.72 207.944 212.392 216.84 221.28799">’’ = two halfsteps (whole step) bend</tspan><tspan
         id="tspan614"
         y="9"
         x="92.32 93.639999 94.959999 96.176003 103.32 107.992 113.32 115.544 119.992 122.656 127.104 131.552 133.776 138.224 142.672 144.448 146.672 150.672 152.896 157.34399 161.79201 165.79201 168.01601 172.464 176.912 181.36">’’’ = three halfsteps bend</tspan><tspan
         id="tspan616"
         y="18"
         x="92.32 96.767998 103.32 107.992 113.32 117.648 121.4488 125.8968 128.56081 130.78481 135.0728 136.8488 141.1768 146.952 149.17599 153.62399 156.20799 160.496">o = over blow/draw</tspan></text>
<text
       id="text622"
       style="font-variant:normal;font-weight:normal;font-stretch:normal;font-size:20.39999962px;font-family:Berylium;-inkscape-font-specification:Berylium;writing-mode:lr-tb;fill:#231f20;fill-opacity:1;fill-rule:nonzero;stroke:none"
       transform="matrix(0,1,0.98039216,0,40.5264,58.0348)"><tspan
         id="tspan620"
         y="0"
         x="0 17.136 27.642 34.7616 39.779999 47.9604 56.467201 61.138802 67.6464 82.722 93.309601 98.450401 106.5288 111.6696 116.688 127.2756 137.6796 144.18719 152.694 163.09801 173.298 179.8056 195.6972 200.71561 208.79401 213.9348 224.5224 234.92641 239.94479 248.1252 254.6328 270.7692 279.276 286.0896 302.2056 312.79321 323.1972 328.21561 336.396 344.9028 351.4104 362.6304 371.13721 381.27805 385.94965 394.026 399.16681 409.67279 416.22119 424.74841 431.25601 436.74359 447.33121 454.14481 460.6524 475.32001 483.39841 488.53922 499.0452 505.51199 514.0188 518.69043 525.198 540.27362 550.86121 556.00201 564.52917">Musical Notation and Diatonic Harmonica Tablature for Natural Notes</tspan></text>
<text
       id="text632"
       style="font-variant:normal;font-weight:normal;font-size:8px;font-family:Helvetica;-inkscape-font-specification:Helvetica;writing-mode:lr-tb;fill:#231f20;fill-opacity:1;fill-rule:nonzero;stroke:none"
       transform="matrix(0,1,1,0,54.6138,57.5655)"><tspan
         id="tspan624"
         y="0"
         x="0 4.6719999 6.8959999 12.232 14.008 15.784 18.007999 22.455999 26.903999 29.128 33.576 37.576 39.799999 44.248001 48.535999 52.335999 56.784 59.007999 63.456001 67.903999 72.351997 76.800003 79.024002 85.688004 90.015999 93.816002 98.264 102.712 104.936 109.384 113.832 118.28 120.504 124.952 128.952 131.17599 135.464 139.26401 143.71201 145.936 150.384 154.71201 160.48801 164.936 167.16 171.608 176.056 178.28 180.504 184.952 189.39999 191.62399 195.62399 197.84801 202.29601 204.52 206.744 208.968 210.952 215.39999 218.064 220.28799 224.73599 229.18401 233.18401 237.632 239.856 244.304 246.528 248.752 253.2 255.864 260.31201 264.31201 268.76001 273.20801 275.43201 279.88 282.104 283.88 288.328 292.776">~ All notes have been moved one octave down on the staff for ease of presentation.</tspan><tspan
         id="tspan626"
         y="9"
         x="0 5.336 7.5599999 12.008 14.232 16.455999 18.360001 25.912001 30.360001 34.807999 39.256001 41.48 44.144001 48.591999 53.040001 57.487999 59.264 63.712002 68.160004 70.384003 74.384003 76.608002 81.056 85.503998 89.952003 94.400002 97.064003 101.512 103.736 110.32 114.7688 118.7688 120.5448 124.5448 128.9928 130.7688 132.9928 137.4408 141.88879 144.11279 148.56081 150.78481 152.56081 157.0088 161.4568 163.6808 165.9048 168.1288 172.5768 177.0248 179.24879 183.24879 185.9128 189.9128 192.1368 194.36079 198.80881 203.25681 205.4808 209.9288 214.3768 217.0408 223.2648 225.9288 230.3768 234.8248 239.2728 241.4968 245.94479 248.16879 252.61681 257.06479 259.9288 266.59201 271.04001 275.48801 277.26401 281.26401 285.71201">E.g., When reading standard musical notation, the frst note–“G”–on a harmonica </tspan><tspan
         id="tspan628"
         y="18"
         x="0 1.776 6.224 8.448 10.672 15.12 19.568001 21.792 25.632 29.92 33.919998 36.144001 40.591999 42.816002 45.040001 51.264 53.487999 55.712002 61.408001 65.856003 70.304001 72.080002 76.528 78.751999 83.199997 87.648003 92.096001 96.543999 100.992 103.656 105.88 110.328 114.776 117.44 121.888">in the key of G, would appear here </tspan><tspan
         id="tspan630"
         y="537.81842"
         x="641.87201 647.76801 649.992 654.44 658.888 663.336 667.784 670.008 672.23199 678.896 681.12 688.03198 690.25519 696.91919 701.36719 703.14319 704.91919 709.36719">© 2007, M.W.Molino</tspan></text>
<path
       id="path634"
       style="fill:#231f20;fill-opacity:1;fill-rule:nonzero;stroke:none"
       d="m 84.819,243.654 -5.746,-3.318 v 6.636 l 5.746,-3.318" /><path
       id="path636"
       style="fill:none;stroke:#231f20;stroke-width:0.5;stroke-linecap:round;stroke-linejoin:round;stroke-miterlimit:4;stroke-dasharray:none;stroke-opacity:1"
       d="m 70.546,243.654 c 10.125,0 10.125,0 10.125,0 M 70.326,181.456 c 0,61.883 0,61.883 0,61.883" /></g></svg>